<?xml version="1.0" standalone="no"?><!DOCTYPE svg PUBLIC "-//W3C//DTD SVG 1.1//EN"
        "http://www.w3.org/Graphics/SVG/1.1/DTD/svg11.dtd">
<svg t="1617077534437" class="icon" viewBox="0 0 1024 1024" version="1.1" xmlns="http://www.w3.org/2000/svg" p-id="1180"
     xmlns:xlink="http://www.w3.org/1999/xlink" width="200" height="200">
    <defs>
        <style type="text/css"></style>
    </defs>
     <path d="M501.028571 965.485714C263.314286 965.485714 73.142857 775.314286 73.142857 537.6 73.142857 299.885714 263.314286 109.714286 501.028571 109.714286c237.714286 0 427.885714 190.171429 427.885715 427.885714 0 237.714286-190.171429 427.885714-427.885715 427.885714z m0-800.914285C296.228571 164.571429 128 332.8 128 537.6s168.228571 373.028571 373.028571 373.028571 373.028571-168.228571 373.028572-373.028571S705.828571 164.571429 501.028571 164.571429zM84.114286 230.4c-3.657143 0-7.314286 0-10.971429-3.657143-14.628571-7.314286-21.942857-21.942857-14.628571-36.571428 36.571429-65.828571 106.057143-113.371429 160.914285-131.657143 14.628571-3.657143 29.257143 3.657143 32.914286 18.285714 3.657143 14.628571-3.657143 29.257143-18.285714 32.914286-40.228571 14.628571-98.742857 54.857143-124.342857 106.057143-7.314286 10.971429-14.628571 14.628571-25.6 14.628571zM939.885714 230.4c-10.971429 0-18.285714-3.657143-25.6-14.628571-25.6-51.2-84.114286-91.428571-128-106.057143-14.628571-3.657143-21.942857-21.942857-18.285714-32.914286 3.657143-14.628571 21.942857-21.942857 32.914286-18.285714 51.2 18.285714 124.342857 65.828571 157.257143 131.657143 7.314286 14.628571 3.657143 29.257143-10.971429 36.571428 0 3.657143-3.657143 3.657143-7.314286 3.657143z"
          fill="#eb8a79" p-id="1182" data-spm-anchor-id="a313x.7781069.0.i6" class="selected"></path>
    <path d="M482.742857 402.285714c14.628571 0 29.257143 10.971429 29.257143 29.257143v164.571429c0 14.628571-10.971429 29.257143-29.257143 29.257143-14.628571 0-29.257143-10.971429-29.257143-29.257143v-164.571429c3.657143-18.285714 14.628571-29.257143 29.257143-29.257143z"
          fill="#eb8a79" p-id="1183" data-spm-anchor-id="a313x.7781069.0.i4" class="selected"></path>
    <path d="M676.571429 592.457143c0 14.628571-10.971429 29.257143-29.257143 29.257143h-164.571429c-14.628571 0-29.257143-10.971429-29.257143-29.257143 0-14.628571 10.971429-29.257143 29.257143-29.257143h164.571429c18.285714 3.657143 29.257143 14.628571 29.257143 29.257143z"
          fill="#eb8a79" p-id="1184" data-spm-anchor-id="a313x.7781069.0.i9" class="selected"></path>
</svg>