<svg xmlns="http://www.w3.org/2000/svg" xmlns:xlink="http://www.w3.org/1999/xlink" width="200" height="200" class="icon" p-id="3249" t="1613802873325" version="1.1" viewBox="0 0 1024 1024"><defs><style type="text/css"/></defs><path fill="#21bae6" d="M170.666667 213.333333m-64 0a64 64 0 1 0 128 0 64 64 0 1 0-128 0Z" p-id="3250"/><path fill="#21bae6" d="M170.666667 512m-64 0a64 64 0 1 0 128 0 64 64 0 1 0-128 0Z" p-id="3251"/><path fill="#21bae6" d="M170.666667 810.666667m-64 0a64 64 0 1 0 128 0 64 64 0 1 0-128 0Z" p-id="3252"/><path fill="#21bae6" d="M896 778.666667H362.666667c-17.066667 0-32 14.933333-32 32s14.933333 32 32 32h533.333333c17.066667 0 32-14.933333 32-32s-14.933333-32-32-32zM362.666667 245.333333h533.333333c17.066667 0 32-14.933333 32-32s-14.933333-32-32-32H362.666667c-17.066667 0-32 14.933333-32 32s14.933333 32 32 32zM896 480H362.666667c-17.066667 0-32 14.933333-32 32s14.933333 32 32 32h533.333333c17.066667 0 32-14.933333 32-32s-14.933333-32-32-32z" p-id="3253"/></svg>