<svg xmlns="http://www.w3.org/2000/svg" xmlns:xlink="http://www.w3.org/1999/xlink" width="200" height="200" class="icon" data-spm-anchor-id="a313x.7781069.0.i3" p-id="984" t="1617077276646" version="1.1" viewBox="0 0 1024 1024"><defs><style type="text/css"/></defs><path fill="#6bc1cd" d="M512 512c-120.685714 0-219.428571-98.742857-219.428571-219.428571V256c0-120.685714 98.742857-219.428571 219.428571-219.428571h146.285714c40.228571 0 73.142857 32.914286 73.142857 73.142857v182.857143c0 120.685714-98.742857 219.428571-219.428571 219.428571z m0-420.571429c-91.428571 0-164.571429 73.142857-164.571429 164.571429v36.571429c0 91.428571 73.142857 164.571429 164.571429 164.571428s164.571429-73.142857 164.571429-164.571428V109.714286c0-10.971429-7.314286-18.285714-18.285715-18.285715h-146.285714z" data-spm-anchor-id="a313x.7781069.0.i5" p-id="986"/><path fill="#6bc1cd" d="M815.542857 987.428571H208.457143c-87.771429 0-160.914286-73.142857-160.914286-160.914285 0-14.628571 3.657143-29.257143 7.314286-40.228572l10.971428-40.228571c25.6-95.085714 113.371429-160.914286 212.114286-160.914286h468.114286c98.742857 0 186.514286 65.828571 212.114286 160.914286l10.971428 40.228571c10.971429 40.228571 7.314286 84.114286-14.628571 120.685715-21.942857 36.571429-54.857143 62.171429-95.085715 73.142857-14.628571 3.657143-29.257143 7.314286-43.885714 7.314285zM277.942857 640c-73.142857 0-138.971429 51.2-157.257143 120.685714L109.714286 800.914286c-3.657143 7.314286-3.657143 18.285714-3.657143 29.257143 0 58.514286 47.542857 106.057143 106.057143 106.057142h607.085714c10.971429 0 18.285714 0 29.257143-3.657142 25.6-7.314286 47.542857-25.6 62.171428-47.542858 14.628571-25.6 18.285714-51.2 10.971429-80.457142l-10.971429-40.228572c-18.285714-73.142857-84.114286-120.685714-157.257142-120.685714h-475.428572z" data-spm-anchor-id="a313x.7781069.0.i6" p-id="988"/><path fill="#6bc1cd" d="M438.857143 585.142857c0 40.228571 32.914286 73.142857 73.142857 73.142857s73.142857-32.914286 73.142857-73.142857" p-id="989"/><path fill="#6bc1cd" d="M482.742857 621.714286h54.857143l25.6 153.6c0 7.314286 0 10.971429-3.657143 14.628571l-36.571428 36.571429c-7.314286 7.314286-18.285714 7.314286-25.6 0l-36.571429-36.571429c-3.657143-3.657143-7.314286-10.971429-3.657143-14.628571l25.6-153.6z" p-id="990"/></svg>