<?xml version="1.0" standalone="no"?><!DOCTYPE svg PUBLIC "-//W3C//DTD SVG 1.1//EN"
        "http://www.w3.org/Graphics/SVG/1.1/DTD/svg11.dtd">
<svg t="1617077742299" class="icon" viewBox="0 0 1024 1024" version="1.1" xmlns="http://www.w3.org/2000/svg" p-id="1424"
     xmlns:xlink="http://www.w3.org/1999/xlink" width="200" height="200">
    <defs>
        <style type="text/css"></style>
    </defs>

    <path d="M775.314286 950.857143H248.685714C149.942857 950.857143 73.142857 874.057143 73.142857 775.314286V321.828571C73.142857 223.085714 149.942857 146.285714 248.685714 146.285714h530.285715C874.057143 146.285714 950.857143 223.085714 950.857143 321.828571v457.142858c0 95.085714-76.8 171.885714-175.542857 171.885714zM248.685714 201.142857C182.857143 201.142857 128 256 128 321.828571v457.142858c0 65.828571 54.857143 117.028571 117.028571 117.028571h530.285715c65.828571 0 117.028571-54.857143 117.028571-117.028571V321.828571c0-65.828571-54.857143-117.028571-117.028571-117.028571H248.685714z"
          fill="#d68ed1" p-id="1426"></path>
    <path d="M329.142857 73.142857c21.942857 0 36.571429 14.628571 36.571429 36.571429v73.142857H292.571429V109.714286c0-21.942857 14.628571-36.571429 36.571428-36.571429zM694.857143 73.142857c21.942857 0 36.571429 14.628571 36.571428 36.571429v73.142857h-73.142857V109.714286c0-21.942857 14.628571-36.571429 36.571429-36.571429zM73.142857 329.142857h877.714286v54.857143H73.142857zM468.114286 548.571429c14.628571 0 29.257143 10.971429 29.257143 29.257142v128c-3.657143 14.628571-14.628571 25.6-29.257143 25.6-18.285714 0-29.257143-10.971429-29.257143-29.257142v-124.342858c0-18.285714 10.971429-29.257143 29.257143-29.257142z"
          fill="#d68ed1" p-id="1427"></path>
    <path d="M621.714286 702.171429c0 18.285714-10.971429 29.257143-29.257143 29.257142h-124.342857c-18.285714 0-29.257143-10.971429-29.257143-29.257142 0-14.628571 10.971429-29.257143 29.257143-29.257143h128c14.628571 3.657143 25.6 14.628571 25.6 29.257143z"
          fill="#d68ed1" p-id="1428"></path>
</svg>