<svg xmlns="http://www.w3.org/2000/svg" xmlns:xlink="http://www.w3.org/1999/xlink" width="200" height="200" class="icon" p-id="1572" t="1617077765451" version="1.1" viewBox="0 0 1024 1024"><defs><style type="text/css"/></defs><path fill="#77c182" d="M786.285714 950.857143h-548.571428c-73.142857 0-128-58.514286-128-128v-621.714286C109.714286 131.657143 168.228571 73.142857 237.714286 73.142857h544.914285c73.142857 0 128 58.514286 128 128v618.057143c3.657143 73.142857-54.857143 131.657143-124.342857 131.657143zM237.714286 128c-40.228571 0-73.142857 32.914286-73.142857 73.142857v618.057143c0 40.228571 32.914286 73.142857 73.142857 73.142857h544.914285c40.228571 0 73.142857-32.914286 73.142858-73.142857V201.142857c0-40.228571-32.914286-73.142857-73.142858-73.142857H237.714286z" p-id="1574"/><path fill="#77c182" d="M394.971429 402.285714h91.428571c14.628571 0 29.257143 10.971429 29.257143 29.257143 0 14.628571-10.971429 29.257143-29.257143 29.257143h-91.428571c-14.628571 0-29.257143-10.971429-29.257143-29.257143s10.971429-29.257143 29.257143-29.257143zM394.971429 585.142857h237.714285c14.628571 0 29.257143 10.971429 29.257143 29.257143 0 14.628571-10.971429 29.257143-29.257143 29.257143h-237.714285c-14.628571 0-29.257143-10.971429-29.257143-29.257143s10.971429-29.257143 29.257143-29.257143z" p-id="1575"/></svg>