<?xml version="1.0" standalone="no"?><!DOCTYPE svg PUBLIC "-//W3C//DTD SVG 1.1//EN" "http://www.w3.org/Graphics/SVG/1.1/DTD/svg11.dtd"><svg t="1614595058334" class="icon" viewBox="0 0 1024 1024" version="1.1" xmlns="http://www.w3.org/2000/svg" p-id="5734" xmlns:xlink="http://www.w3.org/1999/xlink" width="200" height="200"><defs><style type="text/css"></style></defs><path d="M835.2 830.8h-644c-23.1 0-44.1-11.8-56.2-31.7-12.1-20-12.9-44.3-2.1-65L187.7 629V477.5c0-181.6 146-329.4 325.5-329.4s325.5 147.8 325.5 329.4V629l54.8 105.1c10.8 20.7 10 45-2.1 65-12 19.9-33 31.7-56.2 31.7zM814 775.5h0.2-0.2z m-583.7-34.3h565.8l-42-80.5c-3.3-6.4-5.1-13.5-5.1-20.7V477.5c0-132.2-105.8-239.7-235.9-239.7-130.1 0-235.9 107.5-235.9 239.7V640c0 7.2-1.8 14.3-5.1 20.7l-41.8 80.5z" fill="#2c2c2c" p-id="5735"></path><path d="M657 505.2c-21.7 0-40.8-15.9-44.2-38-6.8-44.1-40.4-78.4-83.6-85.4-24.4-4-41-27-37-51.4s26.8-41 51.4-37c81.6 13.3 145 77.7 157.7 160.3 3.8 24.5-13 47.3-37.5 51.1-2.2 0.2-4.5 0.4-6.8 0.4zM513.2 960.2c-83.8 0-151.9-68.1-151.9-151.9 0-24.8 20.1-44.8 44.8-44.8 24.8 0 44.8 20.1 44.8 44.8 0 34.3 27.9 62.3 62.3 62.3s62.3-27.9 62.3-62.3c0-24.8 20.1-44.8 44.8-44.8 24.8 0 44.8 20.1 44.8 44.8 0.1 83.8-68.1 151.9-151.9 151.9zM513.2 218c-24.8 0-44.8-20.1-44.8-44.8v-64.5c0-24.8 20.1-44.8 44.8-44.8s44.8 20 44.8 44.8v64.5c0 24.7-20 44.8-44.8 44.8z" fill="#2c2c2c" p-id="5736"></path></svg>