<?xml version="1.0" encoding="utf-8"?>
<!-- Generator: Adobe Illustrator 22.0.0, SVG Export Plug-In . SVG Version: 6.00 Build 0)  -->
<svg version="1.1" xmlns="http://www.w3.org/2000/svg" xmlns:xlink="http://www.w3.org/1999/xlink" x="0px" y="0px"
	 viewBox="0 0 1024 1024" style="enable-background:new 0 0 1024 1024;" xml:space="preserve">
<g id="四六级">
</g>
<g id="评教">
</g>
<g id="水卡">
</g>
<g id="空教室">
</g>
<g id="培养方案">
	<g>
		<g>
			<path d="M830.8,1024H193.2C86.6,1024,0,937.4,0,830.8V193.2C0,86.6,86.6,0,193.2,0h637.7C937.4,0,1024,86.6,1024,193.2v637.7
				C1024,937.4,937.4,1024,830.8,1024z M193.2,77.3c-63.9,0-115.9,52-115.9,115.9v637.7c0,63.9,52,115.9,115.9,115.9h637.7
				c63.9,0,115.9-52,115.9-115.9V193.2c0-63.9-52-115.9-115.9-115.9H193.2z"/>
		</g>
		<g>
			<path d="M512,550.6H253.5c-21.3,0-38.6-17.3-38.6-38.6c0-21.3,17.3-38.6,38.6-38.6H512c21.3,0,38.6,17.3,38.6,38.6
				C550.6,533.3,533.3,550.6,512,550.6z"/>
		</g>
		<g>
			<path d="M770.5,809.1h-517c-21.3,0-38.6-17.3-38.6-38.6v-517c0-21.3,17.3-38.6,38.6-38.6H512c21.3,0,38.6,17.3,38.6,38.6v478.4
				h181.2V550.6h-60c-21.3,0-38.6-17.3-38.6-38.6c0-21.3,17.3-38.6,38.6-38.6h98.7c21.3,0,38.6,17.3,38.6,38.6v258.5
				C809.1,791.8,791.8,809.1,770.5,809.1z M292.1,731.9h181.2V292.1H292.1V731.9z"/>
		</g>
	</g>
</g>
<g id="校历">
</g>
<g id="考试日程">
</g>
<g id="成绩查询">
</g>
</svg>
