<svg xmlns="http://www.w3.org/2000/svg" xmlns:xlink="http://www.w3.org/1999/xlink" x="0" y="0" version="1.1" viewBox="0 0 1024 1024" xml:space="preserve" style="enable-background:new 0 0 1024 1024"><style type="text/css">.st0{fill:#fff}</style><g id="校历"><g><g><path d="M830.8,1024H193.2C86.6,1024,0,937.4,0,830.8V193.2C0,86.6,86.6,0,193.2,0H301c21.3,0,38.6,17.3,38.6,38.6 v142.9h344.7V38.6C684.4,17.3,701.7,0,723,0h107.8C937.4,0,1024,86.6,1024,193.2v637.7C1024,937.4,937.4,1024,830.8,1024z M193.2,77.3c-63.9,0-115.9,52-115.9,115.9v637.7c0,63.9,52,115.9,115.9,115.9h637.7c63.9,0,115.9-52,115.9-115.9V193.2 c0-63.9-52-115.9-115.9-115.9h-69.2v142.9c0,21.3-17.3,38.6-38.6,38.6H301c-21.3,0-38.6-17.3-38.6-38.6V77.3H193.2z" class="st0"/></g><g><path d="M335.7,470.9h-111c-21.3,0-38.6-17.3-38.6-38.6c0-21.3,17.3-38.6,38.6-38.6h111c21.3,0,38.6,17.3,38.6,38.6 C374.3,453.6,357,470.9,335.7,470.9z" class="st0"/></g><g><path d="M335.7,651.3h-111c-21.3,0-38.6-17.3-38.6-38.6s17.3-38.6,38.6-38.6h111c21.3,0,38.6,17.3,38.6,38.6 S357,651.3,335.7,651.3z" class="st0"/></g><g><path d="M335.7,825.3h-111c-21.3,0-38.6-17.3-38.6-38.6c0-21.3,17.3-38.6,38.6-38.6h111c21.3,0,38.6,17.3,38.6,38.6 C374.3,808.1,357,825.3,335.7,825.3z" class="st0"/></g><g><path d="M567.5,470.9h-111c-21.3,0-38.6-17.3-38.6-38.6c0-21.3,17.3-38.6,38.6-38.6h111c21.3,0,38.6,17.3,38.6,38.6 C606.1,453.6,588.8,470.9,567.5,470.9z" class="st0"/></g><g><path d="M567.5,651.3h-111c-21.3,0-38.6-17.3-38.6-38.6s17.3-38.6,38.6-38.6h111c21.3,0,38.6,17.3,38.6,38.6 S588.8,651.3,567.5,651.3z" class="st0"/></g><g><path d="M567.5,825.3h-111c-21.3,0-38.6-17.3-38.6-38.6c0-21.3,17.3-38.6,38.6-38.6h111c21.3,0,38.6,17.3,38.6,38.6 C606.1,808.1,588.8,825.3,567.5,825.3z" class="st0"/></g><g><path d="M799.3,470.9h-111c-21.3,0-38.6-17.3-38.6-38.6c0-21.3,17.3-38.6,38.6-38.6h111c21.3,0,38.6,17.3,38.6,38.6 C837.9,453.6,820.6,470.9,799.3,470.9z" class="st0"/></g><g><path d="M799.3,651.3h-111c-21.3,0-38.6-17.3-38.6-38.6S667,574,688.3,574h111c21.3,0,38.6,17.3,38.6,38.6 S820.6,651.3,799.3,651.3z" class="st0"/></g></g></g></svg>