<svg xmlns="http://www.w3.org/2000/svg" xmlns:xlink="http://www.w3.org/1999/xlink" x="0" y="0" version="1.1" viewBox="0 0 1024 1024" xml:space="preserve" style="enable-background:new 0 0 1024 1024"><g id="成绩查询"><g><g><path d="M630.3,1024H193.2C86.6,1024,0,937.4,0,830.8V193.2C0,86.6,86.6,0,193.2,0h637.7C937.3,0,1024,86.7,1024,193.2v437.2 c0,21.3-17.3,38.6-38.6,38.6s-38.6-17.3-38.6-38.6V193.2c0-63.9-52-115.9-115.9-115.9H193.2c-63.9,0-115.9,52-115.9,115.9v637.7 c0,63.9,52,115.9,115.9,115.9h437.2c21.3,0,38.6,17.3,38.6,38.6S651.7,1024,630.3,1024z"/></g><g><path d="M512,807.6C349,807.6,216.4,675,216.4,512S349,216.4,512,216.4S807.6,349,807.6,512S675,807.6,512,807.6z M512,293.7 c-120.4,0-218.3,97.9-218.3,218.3S391.6,730.3,512,730.3S730.3,632.4,730.3,512S632.4,293.7,512,293.7z"/></g><g><path d="M940.1,978.7c-9.9,0-19.8-3.8-27.3-11.3L666.4,721c-15.1-15.1-15.1-39.5,0-54.6c15.1-15.1,39.5-15.1,54.6,0l246.4,246.4 c15.1,15.1,15.1,39.5,0,54.6C959.9,975,950,978.7,940.1,978.7z"/></g></g></g></svg>