<svg xmlns="http://www.w3.org/2000/svg" xmlns:xlink="http://www.w3.org/1999/xlink" x="0" y="0" version="1.1" viewBox="0 0 1024 1024" xml:space="preserve" style="enable-background:new 0 0 1024 1024"><style type="text/css">.st0{fill:#fff}</style><g id="考试日程"><g><g><path d="M830.8,1024H544.4c-21.3,0-38.6-17.3-38.6-38.6s17.3-38.6,38.6-38.6h286.4c63.9,0,115.9-52,115.9-115.9 V193.2c0-63.9-52-115.9-115.9-115.9H193.2c-63.9,0-115.9,52-115.9,115.9v637.7c0,63.9,52,115.9,115.9,115.9h19.1V548.2 c0-0.4,0-0.9,0-1.3V266.3c0-14.4,8.1-27.7,20.9-34.3c12.8-6.6,28.3-5.6,40.1,2.8c128.9,91.3,197,54,275.8,10.8 c36.6-20,74.4-40.7,118.3-48c51.4-8.5,101.8,3.3,154.1,35.9c11.3,7.1,18.2,19.4,18.2,32.8v278.1c0,12.5-6.1,24.3-16.3,31.5 c-10.2,7.2-23.3,9.1-35.1,5c-102.4-35.8-157.2-9.7-220.6,20.4c-69.7,33.1-147.5,70.1-278.1,10.6v373.5 c0,21.3-17.3,38.6-38.6,38.6h-57.7C86.6,1024,0,937.4,0,830.8V193.2C0,86.6,86.6,0,193.2,0h637.7C937.4,0,1024,86.6,1024,193.2 v637.7C1024,937.4,937.4,1024,830.8,1024z M289.5,525.4c118.5,66.2,174.7,39.5,245,6.2c33.1-15.7,70.5-33.5,115.5-41.1 c36-6.1,73.1-5.1,112.4,3.1V288.8c-68.4-34.5-114.4-9.3-176.2,24.5c-73.6,40.3-163,89.3-296.6,21.6V525.4z" class="st0"/></g></g></g></svg>