<svg xmlns="http://www.w3.org/2000/svg" xmlns:xlink="http://www.w3.org/1999/xlink" x="0" y="0" version="1.1" viewBox="0 0 1024 1024" xml:space="preserve" style="enable-background:new 0 0 1024 1024"><style type="text/css">.st0{fill:#fff}</style><g id="空教室"><g><g><path d="M985.4,298.7H38.6C17.3,298.7,0,281.4,0,260.1c0-21.3,17.3-38.6,38.6-38.6h946.7c21.3,0,38.6,17.3,38.6,38.6 C1024,281.4,1006.7,298.7,985.4,298.7z" class="st0"/></g><g><path d="M369.6,793.7c-96.9,0-175.7-78.8-175.7-175.7s78.8-175.7,175.7-175.7S545.3,521.1,545.3,618 S466.5,793.7,369.6,793.7z M369.6,519.5c-54.3,0-98.5,44.2-98.5,98.5c0,54.3,44.2,98.5,98.5,98.5c54.3,0,98.5-44.2,98.5-98.5 C468.1,563.7,423.9,519.5,369.6,519.5z" class="st0"/></g><g><path d="M830.8,1024H624.7c-19.8,0-36.4-15-38.4-34.7c-5.9-58.2-34.3-110.5-80.1-147.4l0,0 c-39.1-31.5-86.3-48.1-136.6-48.1c-105.2,0-195.2,74.9-214.2,178.1c-0.2,1.2-0.4,2.3-0.7,3.5c-4.5,17-19.8,28.8-37.4,28.8 c-6.8,0-13.4-1.8-19.2-5.1C37.6,964.8,0,900.3,0,830.8V193.2C0,86.6,86.6,0,193.2,0h637.7C937.4,0,1024,86.6,1024,193.2v637.7 C1024,937.4,937.4,1024,830.8,1024z M657.5,946.7h173.3c63.9,0,115.9-52,115.9-115.9V193.2c0-63.9-52-115.9-115.9-115.9H193.2 c-63.9,0-115.9,52-115.9,115.9v637.7c0,23.8,7.4,46.7,20.5,65.7c45.2-107.3,151.1-180.1,271.9-180.1 c67.2,0,132.9,23.2,185.1,65.2c30.2,24.3,54.9,53.8,73.5,87.7C641.7,893.9,651.5,919.8,657.5,946.7z" class="st0"/></g><g><path d="M824.3,448.8H623.9c-21.3,0-38.6-17.3-38.6-38.6c0-21.3,17.3-38.6,38.6-38.6h200.4 c21.3,0,38.6,17.3,38.6,38.6C863,431.5,845.7,448.8,824.3,448.8z" class="st0"/></g><g><path d="M824.3,581.5h-131c-21.3,0-38.6-17.3-38.6-38.6s17.3-38.6,38.6-38.6h131c21.3,0,38.6,17.3,38.6,38.6 S845.7,581.5,824.3,581.5z" class="st0"/></g></g></g></svg>