<?xml version="1.0" encoding="utf-8"?>
<!-- Generator: Adobe Illustrator 22.0.0, SVG Export Plug-In . SVG Version: 6.00 Build 0)  -->
<svg version="1.1" xmlns="http://www.w3.org/2000/svg" xmlns:xlink="http://www.w3.org/1999/xlink" x="0px" y="0px"
	 viewBox="0 0 1024 1024" style="enable-background:new 0 0 1024 1024;" xml:space="preserve">
<style type="text/css">
	.st0{fill:#FFFFFF;}
</style>
<g id="四六级">
</g>
<g id="评教">
</g>
<g id="水卡">
	<g>
		<g>
			<path class="st0" d="M830.8,1024H193.2C86.6,1024,0,937.4,0,830.8V193.2C0,86.7,86.6,0,193.2,0h103.2c21.3,0,38.6,17.3,38.6,38.6
				s-17.3,38.6-38.6,38.6H193.2c-63.9,0-115.9,52-115.9,115.9v637.7c0,63.9,52,115.9,115.9,115.9h637.7c63.9,0,115.9-52,115.9-115.9
				V193.2c0-63.9-52-115.9-115.9-115.9H727.7c-21.3,0-38.6-17.3-38.6-38.6S706.3,0,727.7,0h103.2C937.4,0,1024,86.7,1024,193.2
				v637.7C1024,937.4,937.4,1024,830.8,1024z"/>
		</g>
		<g>
			<path class="st0" d="M512,859.1c-65.1,0-130.2-24.8-179.8-74.4c-72.4-72.4-94.4-180.6-55.9-275.5c0.1-0.2,0.1-0.3,0.2-0.5l0.4-1
				c0.1-0.2,0.2-0.4,0.3-0.6L476.6,54c6.2-14,20-23.1,35.4-23.1c15.3,0,29.2,9,35.4,23.1l199.1,452.4c0.3,0.6,0.5,1.1,0.7,1.7
				c39.2,95.2,17.4,203.8-55.4,276.7C642.2,834.3,577.1,859.1,512,859.1z M347.8,538.5c-26.7,66.1-11.4,141.2,39,191.6
				c69,69,181.4,69,250.4,0c50.5-50.5,65.7-125.7,38.9-191.9L512,165.4L348,538.1L347.8,538.5z"/>
		</g>
	</g>
</g>
<g id="空教室">
</g>
<g id="培养方案">
</g>
<g id="校历">
</g>
<g id="考试日程">
</g>
<g id="成绩查询">
</g>
</svg>
