<?xml version="1.0" encoding="utf-8"?>
<!-- Generator: Adobe Illustrator 22.0.0, SVG Export Plug-In . SVG Version: 6.00 Build 0)  -->
<svg version="1.1" xmlns="http://www.w3.org/2000/svg" xmlns:xlink="http://www.w3.org/1999/xlink" x="0px" y="0px"
	 viewBox="0 0 1024 1024" style="enable-background:new 0 0 1024 1024;" xml:space="preserve">
<style type="text/css">
	.st0{fill:#FFFFFF;}
</style>
<g id="四六级">
	<g>
		<g>
			<path class="st0" d="M830.8,1024H193.2C86.7,1024,0,937.3,0,830.8V193.2C0,86.7,86.7,0,193.2,0h637.7
				C937.3,0,1024,86.7,1024,193.2v637.7C1024,937.3,937.3,1024,830.8,1024z M193.2,77.3c-63.9,0-115.9,52-115.9,115.9v637.7
				c0,63.9,52,115.9,115.9,115.9h637.7c63.9,0,115.9-52,115.9-115.9V193.2c0-63.9-52-115.9-115.9-115.9H193.2z"/>
		</g>
		<g>
			<path class="st0" d="M328.3,759.1H195.7c-21.3,0-38.6-17.3-38.6-38.6V303.6c0-21.3,17.3-38.6,38.6-38.6h132.5
				c21.3,0,38.6,17.3,38.6,38.6c0,21.3-17.3,38.6-38.6,38.6h-93.9v339.6h93.9c21.3,0,38.6,17.3,38.6,38.6S349.6,759.1,328.3,759.1z"
				/>
		</g>
		<g>
			<path class="st0" d="M575.5,759.1H441.8c-21.3,0-38.6-17.3-38.6-38.6V303.6c0-21.3,17.3-38.6,38.6-38.6h133.7
				c21.3,0,38.6,17.3,38.6,38.6c0,21.3-17.3,38.6-38.6,38.6h-95v339.6h95c21.3,0,38.6,17.3,38.6,38.6S596.9,759.1,575.5,759.1z"/>
		</g>
		<g>
			<path class="st0" d="M575.5,550.6H441.8c-21.3,0-38.6-17.3-38.6-38.6c0-21.3,17.3-38.6,38.6-38.6h133.7
				c21.3,0,38.6,17.3,38.6,38.6C614.1,533.3,596.9,550.6,575.5,550.6z"/>
		</g>
		<g>
			<path class="st0" d="M838.5,342.2H682.1c-21.3,0-38.6-17.3-38.6-38.6c0-21.3,17.3-38.6,38.6-38.6h156.4
				c21.3,0,38.6,17.3,38.6,38.6C877.2,324.9,859.9,342.2,838.5,342.2z"/>
		</g>
		<g>
			<path class="st0" d="M760.3,759.1c-21.3,0-38.6-17.3-38.6-38.6V303.6c0-21.3,17.3-38.6,38.6-38.6c21.3,0,38.6,17.3,38.6,38.6
				v416.9C799,741.8,781.7,759.1,760.3,759.1z"/>
		</g>
	</g>
</g>
<g id="评教">
</g>
<g id="水卡">
</g>
<g id="空教室">
</g>
<g id="培养方案">
</g>
<g id="校历">
</g>
<g id="考试日程">
</g>
<g id="成绩查询">
</g>
</svg>
