<svg xmlns="http://www.w3.org/2000/svg" xmlns:xlink="http://www.w3.org/1999/xlink" width="200" height="200" class="icon" p-id="5918" t="1614595080116" version="1.1" viewBox="0 0 1024 1024"><defs><style type="text/css"/></defs><path fill="#d81e06" d="M195.2 734.4c-7 0-14-1.6-20.6-5.1-21.9-11.4-30.4-38.4-19-60.3l20.9-40.1v-151c0-181.1 145.6-328.5 324.7-328.5 54.6 0 108.6 14 156.2 40.5 21.6 12 29.3 39.2 17.3 60.8-12 21.6-39.2 29.4-60.8 17.3-34.3-19.1-73.3-29.2-112.7-29.2-129.7 0-235.3 107.3-235.3 239.1v162c0 7.2-1.7 14.3-5.1 20.7l-26 49.8c-7.9 15.3-23.5 24-39.6 24zM501.1 959.3c-83.6 0-151.5-68-151.5-151.5v-22.2c0-24.7 20-44.7 44.7-44.7h389l-41.8-80.3c-3.3-6.4-5.1-13.5-5.1-20.7v-162c0-14.1-1.2-28.2-3.6-41.9-4.2-24.3 12.1-47.5 36.4-51.7 24.3-4.3 47.5 12.1 51.7 36.4 3.3 18.7 4.9 37.9 4.9 57.2V629l54.6 104.8c10.8 20.7 10 45-2.1 64.9-12 19.8-33 31.6-56 31.6H651c-10.9 72.9-73.9 129-149.9 129z m-57.9-129c9 23.2 31.6 39.7 57.9 39.7s48.9-16.5 57.9-39.7H443.2z" p-id="5919"/><path fill="#d81e06" d="M501.1 219c-24.7 0-44.7-20-44.7-44.7V110c0-24.7 20-44.7 44.7-44.7s44.7 20 44.7 44.7v64.3c0 24.7-20 44.7-44.7 44.7zM173.7 904.1c-11.4 0-22.9-4.4-31.6-13.1-17.5-17.5-17.5-45.8 0-63.2L811 158.9c17.5-17.5 45.8-17.5 63.2 0 17.5 17.5 17.5 45.8 0 63.2L205.3 891c-8.7 8.7-20.2 13.1-31.6 13.1z" p-id="5920"/></svg>