<?xml version="1.0" standalone="no"?><!DOCTYPE svg PUBLIC "-//W3C//DTD SVG 1.1//EN" "http://www.w3.org/Graphics/SVG/1.1/DTD/svg11.dtd"><svg t="1600843605346" class="icon" viewBox="0 0 1032 1024" version="1.1" xmlns="http://www.w3.org/2000/svg" p-id="3530" xmlns:xlink="http://www.w3.org/1999/xlink" width="201.5625" height="200"><defs><style type="text/css"></style></defs><path d="M659.465861 512A237.795556 237.795556 0 0 0 425.273268 293.925926 237.795556 237.795556 0 0 0 191.080676 512 194.180741 194.180741 0 0 0 197.717713 900.740741h455.111111a194.180741 194.180741 0 0 0 6.637037-388.740741zM652.828824 824.888889H197.717713A118.328889 118.328889 0 0 1 197.717713 587.851852a112.260741 112.260741 0 0 1 23.324444 2.465185A37.925926 37.925926 0 0 0 266.742898 549.925926v-15.54963A162.512593 162.512593 0 0 1 425.273268 369.777778a162.512593 162.512593 0 0 1 159.288889 165.167407v15.54963a37.925926 37.925926 0 0 0 45.700741 40.391111A112.260741 112.260741 0 0 1 652.828824 587.851852a118.328889 118.328889 0 0 1 0 237.037037zM731.145861 237.037037a37.925926 37.925926 0 0 0 37.925926-37.925926v-37.925926a37.925926 37.925926 0 0 0-75.851852 0v37.925926a37.925926 37.925926 0 0 0 37.925926 37.925926zM994.162157 387.982222h-37.925926a37.925926 37.925926 0 0 0 0 75.851852h37.925926a37.925926 37.925926 0 0 0 0-75.851852zM944.289564 212.195556a37.925926 37.925926 0 0 0-53.665185 0l-26.737778 26.737777A37.925926 37.925926 0 1 0 918.310305 292.598519L944.289564 265.481481a37.925926 37.925926 0 0 0 0-53.285925z" fill="#ffffff" p-id="3531"></path><path d="M731.145861 274.962963a150.565926 150.565926 0 0 0-107.330371 44.373333 37.925926 37.925926 0 0 0 53.665186 53.665185 77.558519 77.558519 0 0 1 107.33037 0 75.851852 75.851852 0 0 1 0 107.330371 37.925926 37.925926 0 1 0 53.665185 53.665185 151.703704 151.703704 0 0 0-107.33037-259.034074z" fill="#ffffff" p-id="3532"></path></svg>