<?xml version="1.0" standalone="no"?><!DOCTYPE svg PUBLIC "-//W3C//DTD SVG 1.1//EN" "http://www.w3.org/Graphics/SVG/1.1/DTD/svg11.dtd"><svg t="1600843672218" class="icon" viewBox="0 0 1024 1024" version="1.1" xmlns="http://www.w3.org/2000/svg" p-id="4300" xmlns:xlink="http://www.w3.org/1999/xlink" width="200" height="200"><defs><style type="text/css"></style></defs><path d="M796.700444 324.645926a284.444444 284.444444 0 0 0-567.561481 0 227.555556 227.555556 0 0 0-109.985185 427.614815 37.925926 37.925926 0 0 0 36.219259-66.56 151.703704 151.703704 0 0 1 103.727407-281.78963 37.925926 37.925926 0 0 0 45.511112-40.580741c0-6.447407-0.948148-12.894815-0.948149-18.962963a208.592593 208.592593 0 1 1 417.185186 0c0 6.637037 0 13.084444-0.948149 18.962963a37.925926 37.925926 0 0 0 45.511112 40.580741 151.703704 151.703704 0 0 1 102.589629 282.358519 37.925926 37.925926 0 0 0 35.650371 66.939259A227.555556 227.555556 0 0 0 796.700444 324.645926z" fill="#ffffff" p-id="4301"></path><path d="M322.62637 729.884444a37.925926 37.925926 0 0 0-51.768889 13.842963l-37.925925 65.611852a37.925926 37.925926 0 0 0 65.611851 37.925926l37.925926-65.611852a37.925926 37.925926 0 0 0-13.842963-51.768889zM777.737481 729.884444a37.925926 37.925926 0 0 0-51.768888 13.842963l-37.925926 65.611852a37.925926 37.925926 0 0 0 65.611852 37.925926l37.925925-65.611852a37.925926 37.925926 0 0 0-13.842963-51.768889zM626.033778 790.376296v-3.602963a37.925926 37.925926 0 0 0-1.137778-3.792592c0-0.948148 0-2.085926-1.137778-3.034074a37.925926 37.925926 0 0 0-2.275555-3.982223l-1.327408-2.085925a37.925926 37.925926 0 0 0-3.413333-4.171852l-1.327407-1.327408-3.982223-3.413333-1.896296-1.327407-2.465185-0.948149-2.844445-1.327407-2.465185-1.137778-4.361481-1.706666H502.016l43.045926-75.851852a37.925926 37.925926 0 0 0-65.611852-37.925926l-75.851852 131.413333s0 1.706667-1.137778 2.465185l-1.327407 3.034074a37.925926 37.925926 0 0 0-1.327407 3.982223v3.223703a37.925926 37.925926 0 0 0 0 4.171852V796.444444a37.925926 37.925926 0 0 0 0 3.982223v3.413333a37.925926 37.925926 0 0 0 1.137777 3.792593c0 0.948148 0 2.085926 1.137778 3.034074a37.925926 37.925926 0 0 0 2.275556 3.982222l1.327407 2.085926a37.925926 37.925926 0 0 0 3.413333 4.171852l1.327408 1.327407 3.982222 3.413333 1.896296 1.327408 1.517037 1.137778 2.844445 1.327407 2.465185 1.137778 4.361482 1.327407h95.383703l-43.045926 74.524445a37.925926 37.925926 0 1 0 65.611852 37.925926l75.851852-131.413334s0-1.706667 1.137778-2.465185l1.327407-3.034074a37.925926 37.925926 0 0 0 1.327408-3.982222v-3.223704a37.925926 37.925926 0 0 0 0-4.171852L626.033778 796.444444v-1.327407a37.925926 37.925926 0 0 0 0-4.740741z" fill="#ffffff" p-id="4302"></path></svg>