<?xml version="1.0" encoding="utf-8"?>
<!-- Generator: Adobe Illustrator 22.0.0, SVG Export Plug-In . SVG Version: 6.00 Build 0)  -->
<svg version="1.1" id="图层_1" xmlns="http://www.w3.org/2000/svg" xmlns:xlink="http://www.w3.org/1999/xlink" x="0px" y="0px"
	 viewBox="0 0 200 200" style="enable-background:new 0 0 200 200;" xml:space="preserve">
<style type="text/css">
	.st0{fill:#FFFFFF;}
</style>
<path class="st0" d="M100,37c4.1,0,7.4-3.3,7.4-7.4V14.8c0-4.1-3.3-7.4-7.4-7.4s-7.4,3.3-7.4,7.4v14.8C92.6,33.7,95.9,37,100,37
	C100,37,100,37,100,37z M45,55.6c2.9,2.9,7.6,2.9,10.6,0c2.9-2.9,2.9-7.6,0-10.6L45,34.5c-2.9-2.9-7.6-2.9-10.5,0
	c-2.9,2.9-2.9,7.6,0,10.5L45,55.6z M37,100c0-4.1-3.3-7.4-7.4-7.4l0,0H14.8c-4.1,0-7.4,3.3-7.4,7.4c0,4.1,3.3,7.4,7.4,7.4h14.8
	C33.7,107.4,37,104.1,37,100C37,100,37,100,37,100z M45,144.4L34.5,155c-2.9,2.9-2.9,7.6,0,10.5c2.9,2.9,7.6,2.9,10.5,0L55.6,155
	c2.9-2.9,2.9-7.6,0-10.6S47.9,141.5,45,144.4L45,144.4z M100,163c-4.1,0-7.4,3.3-7.4,7.4v14.8c0,4.1,3.3,7.4,7.4,7.4
	c4.1,0,7.4-3.3,7.4-7.4v-14.8C107.4,166.3,104.1,163,100,163z M155,144.4c-2.9-2.9-7.6-2.9-10.6,0s-2.9,7.6,0,10.6l10.5,10.5
	c2.9,2.9,7.6,2.9,10.5,0s2.9-7.6,0-10.5l0,0L155,144.4z M185.2,92.6h-14.8c-4.1,0-7.4,3.3-7.4,7.4c0,4.1,3.3,7.4,7.4,7.4h14.8
	c4.1,0,7.4-3.3,7.4-7.4S189.3,92.6,185.2,92.6z M155,55.6l10.5-10.5c2.9-2.9,2.9-7.6,0-10.5s-7.6-2.9-10.5,0L144.4,45
	c-2.9,2.9-2.9,7.6,0,10.6C147.4,58.5,152.1,58.5,155,55.6z"/>
<path class="st0" d="M100,44.4c-30.7,0-55.6,24.9-55.6,55.6s24.9,55.6,55.6,55.6s55.6-24.9,55.6-55.6l0,0
	C155.6,69.3,130.7,44.4,100,44.4C100,44.4,100,44.4,100,44.4z M100,140.7c-22.5,0-40.7-18.2-40.7-40.7S77.5,59.3,100,59.3
	s40.7,18.2,40.7,40.7S122.5,140.7,100,140.7L100,140.7z"/>
</svg>
