<?xml version="1.0" standalone="no"?><!DOCTYPE svg PUBLIC "-//W3C//DTD SVG 1.1//EN" "http://www.w3.org/Graphics/SVG/1.1/DTD/svg11.dtd"><svg t="1600843594124" class="icon" viewBox="0 0 1026 1024" version="1.1" xmlns="http://www.w3.org/2000/svg" p-id="3143" xmlns:xlink="http://www.w3.org/1999/xlink" width="200.390625" height="200"><defs><style type="text/css"></style></defs><path d="M135.532279 777.481481a37.925926 37.925926 0 0 0-51.768889 13.842963l-37.925926 65.611852a37.925926 37.925926 0 1 0 65.611852 37.925926l37.925925-65.611852A37.925926 37.925926 0 0 0 135.532279 777.481481zM476.865612 777.481481a37.925926 37.925926 0 0 0-51.768889 13.842963l-37.925926 65.611852a37.925926 37.925926 0 1 0 65.611852 37.925926l37.925926-65.611852A37.925926 37.925926 0 0 0 476.865612 777.481481zM818.198945 777.481481a37.925926 37.925926 0 0 0-51.768889 13.842963l-37.925926 65.611852a37.925926 37.925926 0 1 0 65.611852 37.925926l37.925926-65.611852A37.925926 37.925926 0 0 0 818.198945 777.481481zM287.235982 853.333333a37.925926 37.925926 0 0 0-51.768889 13.842963l-37.925926 65.611852a37.925926 37.925926 0 1 0 65.611852 37.925926l37.925926-65.611852A37.925926 37.925926 0 0 0 287.235982 853.333333zM628.569316 853.333333a37.925926 37.925926 0 0 0-51.768889 13.842963l-37.925926 65.611852a37.925926 37.925926 0 1 0 65.611852 37.925926l37.925926-65.611852A37.925926 37.925926 0 0 0 628.569316 853.333333zM969.902649 853.333333a37.925926 37.925926 0 0 0-51.768889 13.842963l-37.925926 65.611852a37.925926 37.925926 0 1 0 65.611852 37.925926l37.925926-65.611852A37.925926 37.925926 0 0 0 969.902649 853.333333zM1026.791538 446.198519a192.284444 192.284444 0 0 0-182.992593-193.991112A237.795556 237.795556 0 0 0 609.606353 33.564444a232.106667 232.106667 0 0 0-183.371852 90.074075 37.925926 37.925926 0 0 0-3.034074 4.74074H419.976723A237.795556 237.795556 0 0 0 185.78413 347.022222 194.180741 194.180741 0 0 0 192.421167 735.194074h455.111112a189.62963 189.62963 0 0 0 162.702222-94.814815H837.161908a192.094815 192.094815 0 0 0 189.62963-194.18074zM647.532279 659.342222H192.421167a118.328889 118.328889 0 0 1 0-236.468148 110.364444 110.364444 0 0 1 23.324445 2.465185 37.925926 37.925926 0 0 0 45.700741-40.58074v-15.54963a162.512593 162.512593 0 0 1 158.53037-164.977778 162.512593 162.512593 0 0 1 159.288889 165.167408v15.549629a37.925926 37.925926 0 0 0 45.89037 40.391111A110.364444 110.364444 0 0 1 647.532279 422.874074a118.328889 118.328889 0 0 1 0 236.468148z m189.629629-94.814815h-1.517037a198.731852 198.731852 0 0 0 1.517037-23.514074 192.284444 192.284444 0 0 0-182.992592-193.991111A240.82963 240.82963 0 0 0 509.102649 146.583704a155.117037 155.117037 0 0 1 100.503704-37.925926 162.512593 162.512593 0 0 1 159.288888 165.167407v15.54963a37.925926 37.925926 0 0 0 45.700741 40.580741 110.364444 110.364444 0 0 1 22.565926-1.896297 118.328889 118.328889 0 0 1 0 236.468148z" fill="#ffffff" p-id="3144"></path></svg>