<?xml version="1.0" standalone="no"?><!DOCTYPE svg PUBLIC "-//W3C//DTD SVG 1.1//EN" "http://www.w3.org/Graphics/SVG/1.1/DTD/svg11.dtd"><svg t="1600843507624" class="icon" viewBox="0 0 1024 1024" version="1.1" xmlns="http://www.w3.org/2000/svg" p-id="2561" xmlns:xlink="http://www.w3.org/1999/xlink" width="200" height="200"><defs><style type="text/css"></style></defs><path d="M796.444444 872.296296H227.555556a227.555556 227.555556 0 0 1 0-455.111111 284.444444 284.444444 0 0 1 568.888888 0 227.555556 227.555556 0 0 1 0 455.111111zM227.555556 493.037037a151.703704 151.703704 0 0 0 0 303.407407h568.888888a151.703704 151.703704 0 0 0 0-303.407407 153.78963 153.78963 0 0 0-31.288888 3.223704 37.925926 37.925926 0 0 1-45.511112-41.14963c0-6.447407 0.948148-12.894815 0.948149-18.962963a208.592593 208.592593 0 0 0-417.185186 0c0 6.637037 0 13.084444 0.948149 18.962963a37.925926 37.925926 0 0 1-45.511112 40.580741A153.78963 153.78963 0 0 0 227.555556 493.037037z" fill="#ffffff" p-id="2562"></path></svg>