<?xml version="1.0" standalone="no"?><!DOCTYPE svg PUBLIC "-//W3C//DTD SVG 1.1//EN" "http://www.w3.org/Graphics/SVG/1.1/DTD/svg11.dtd"><svg t="1600843710285" class="icon" viewBox="0 0 1024 1024" version="1.1" xmlns="http://www.w3.org/2000/svg" p-id="4881" xmlns:xlink="http://www.w3.org/1999/xlink" width="200" height="200"><defs><style type="text/css"></style></defs><path d="M379.259259 785.256296a37.925926 37.925926 0 0 0-37.925926 37.925926v75.851852a37.925926 37.925926 0 0 0 75.851852 0v-75.851852a37.925926 37.925926 0 0 0-37.925926-37.925926zM644.740741 785.256296a37.925926 37.925926 0 0 0-37.925926 37.925926v75.851852a37.925926 37.925926 0 0 0 75.851852 0v-75.851852a37.925926 37.925926 0 0 0-37.925926-37.925926z" fill="#ffffff" p-id="4882"></path><path d="M796.444444 352.521481a284.444444 284.444444 0 0 0-567.561481 0 227.555556 227.555556 0 0 0-109.985185 427.425186 37.925926 37.925926 0 1 0 36.219259-66.56 151.703704 151.703704 0 0 1 72.438519-284.444445 154.548148 154.548148 0 0 1 31.288888 3.223704 37.925926 37.925926 0 0 0 45.511112-40.580741c0-6.447407-0.948148-12.894815-0.948149-18.962963a208.592593 208.592593 0 0 1 417.185186 0c0 6.637037 0 13.084444-0.948149 18.962963a37.925926 37.925926 0 0 0 45.511112 40.580741 154.548148 154.548148 0 0 1 31.288888-3.792593 151.703704 151.703704 0 0 1 71.300741 285.582223 37.925926 37.925926 0 0 0 35.650371 66.939259A227.555556 227.555556 0 0 0 796.444444 352.521481z" fill="#ffffff" p-id="4883"></path></svg>