<?xml version="1.0" standalone="no"?><!DOCTYPE svg PUBLIC "-//W3C//DTD SVG 1.1//EN" "http://www.w3.org/Graphics/SVG/1.1/DTD/svg11.dtd"><svg t="1600843599775" class="icon" viewBox="0 0 1024 1024" version="1.1" xmlns="http://www.w3.org/2000/svg" p-id="3336" xmlns:xlink="http://www.w3.org/1999/xlink" width="200" height="200"><defs><style type="text/css"></style></defs><path d="M796.444444 362.002963a284.444444 284.444444 0 0 0-567.561481 0 227.555556 227.555556 0 0 0-109.985185 427.425185 37.925926 37.925926 0 1 0 36.219259-66.56 151.703704 151.703704 0 0 1 72.438519-284.444444 154.927407 154.927407 0 0 1 31.288888 3.223703 37.925926 37.925926 0 0 0 45.511112-40.58074c0-6.447407-0.948148-12.894815-0.948149-18.962963a208.592593 208.592593 0 0 1 417.185186 0c0 6.637037 0 13.084444-0.948149 18.962963a37.925926 37.925926 0 0 0 45.511112 40.58074 154.927407 154.927407 0 0 1 31.288888-3.792592 151.703704 151.703704 0 0 1 71.300741 285.582222 37.925926 37.925926 0 0 0 35.650371 66.939259A227.555556 227.555556 0 0 0 796.444444 362.002963z" fill="#ffffff" p-id="3337"></path><path d="M341.333333 767.051852a37.925926 37.925926 0 0 0-51.768889 13.842963l-37.925925 65.611852a37.925926 37.925926 0 0 0 65.611851 37.925926l37.925926-65.611852a37.925926 37.925926 0 0 0-13.842963-51.768889zM758.518519 767.051852a37.925926 37.925926 0 0 0-51.768889 13.842963l-37.925926 65.611852a37.925926 37.925926 0 0 0 65.611852 37.925926l37.925925-65.611852a37.925926 37.925926 0 0 0-13.842962-51.768889zM587.851852 813.700741h-30.151111l21.238518-21.238519a18.962963 18.962963 0 1 0-26.737778-26.737778L530.962963 786.962963v-30.151111a18.962963 18.962963 0 0 0-37.925926 0v30.151111l-21.238518-21.238519a18.962963 18.962963 0 1 0-26.737778 26.737778l21.238518 21.238519H436.148148a18.962963 18.962963 0 0 0 0 37.925926h30.151111L444.871111 872.296296a18.962963 18.962963 0 1 0 26.737778 26.737778L493.037037 878.554074v30.151111a18.962963 18.962963 0 0 0 37.925926 0v-30.151111l21.238518 21.238519A18.962963 18.962963 0 1 0 579.128889 872.296296l-21.238519-21.238518H587.851852a18.962963 18.962963 0 0 0 0-37.925926z" fill="#ffffff" p-id="3338"></path></svg>