<?xml version="1.0" standalone="no"?><!DOCTYPE svg PUBLIC "-//W3C//DTD SVG 1.1//EN" "http://www.w3.org/Graphics/SVG/1.1/DTD/svg11.dtd"><svg t="1600843717197" class="icon" viewBox="0 0 1024 1024" version="1.1" xmlns="http://www.w3.org/2000/svg" p-id="5075" xmlns:xlink="http://www.w3.org/1999/xlink" width="200" height="200"><defs><style type="text/css"></style></defs><path d="M796.444444 327.49037a284.444444 284.444444 0 0 0-567.561481 0 227.555556 227.555556 0 0 0 0 455.111111H796.444444a227.555556 227.555556 0 0 0 0-455.111111z m0 379.25926H227.555556a151.703704 151.703704 0 0 1 0-303.407408 153.78963 153.78963 0 0 1 31.288888 3.223704 37.925926 37.925926 0 0 0 45.511112-40.580741c0-6.447407-0.948148-12.894815-0.948149-18.962963a208.592593 208.592593 0 0 1 417.185186 0c0 6.637037 0 13.084444-0.948149 18.962963a37.925926 37.925926 0 0 0 45.511112 40.580741 153.78963 153.78963 0 0 1 31.288888-3.223704 151.703704 151.703704 0 0 1 0 303.407408zM322.37037 825.647407a37.925926 37.925926 0 0 0-51.768889 13.842963l-37.925925 65.611852a37.925926 37.925926 0 1 0 65.611851 37.925926l37.925926-65.611852a37.925926 37.925926 0 0 0-13.842963-51.768889zM474.074074 825.647407a37.925926 37.925926 0 0 0-51.768889 13.842963l-37.925926 65.611852a37.925926 37.925926 0 1 0 65.611852 37.925926l37.925926-65.611852a37.925926 37.925926 0 0 0-13.842963-51.768889zM625.777778 825.647407a37.925926 37.925926 0 0 0-51.768889 13.842963l-37.925926 65.611852a37.925926 37.925926 0 1 0 65.611852 37.925926l37.925926-65.611852a37.925926 37.925926 0 0 0-13.842963-51.768889zM777.481481 825.647407a37.925926 37.925926 0 0 0-51.768888 13.842963l-37.925926 65.611852a37.925926 37.925926 0 1 0 65.611852 37.925926l37.925925-65.611852a37.925926 37.925926 0 0 0-13.842963-51.768889z" fill="#ffffff" p-id="5076"></path></svg>