<?xml version="1.0" standalone="no"?><!DOCTYPE svg PUBLIC "-//W3C//DTD SVG 1.1//EN" "http://www.w3.org/Graphics/SVG/1.1/DTD/svg11.dtd"><svg t="1600843679473" class="icon" viewBox="0 0 1024 1024" version="1.1" xmlns="http://www.w3.org/2000/svg" p-id="4494" xmlns:xlink="http://www.w3.org/1999/xlink" width="200" height="200"><defs><style type="text/css"></style></defs><path d="M341.333333 823.371852a37.925926 37.925926 0 0 0-51.768889 13.842963l-37.925925 65.611852a37.925926 37.925926 0 0 0 13.842962 51.958518 37.925926 37.925926 0 0 0 51.768889-13.842963l37.925926-65.611852a37.925926 37.925926 0 0 0-13.842963-51.958518zM568.888889 823.371852a37.925926 37.925926 0 0 0-51.768889 13.842963l-37.925926 65.611852a37.925926 37.925926 0 1 0 65.611852 37.925926l37.925926-65.611852a37.925926 37.925926 0 0 0-13.842963-51.768889z" fill="#ffffff" p-id="4495"></path><path d="M651.377778 461.558519A237.795556 237.795556 0 0 0 417.185185 242.725926 237.795556 237.795556 0 0 0 182.992593 461.558519a195.128889 195.128889 0 0 0-80.782223 366.174814 37.925926 37.925926 0 1 0 35.650371-66.939259A118.518519 118.518519 0 0 1 75.851852 655.54963a116.242963 116.242963 0 0 1 113.777778-118.328889 110.174815 110.174815 0 0 1 23.324444 2.465185 37.925926 37.925926 0 0 0 45.700741-40.580741v-15.549629A162.512593 162.512593 0 0 1 417.185185 318.577778a162.512593 162.512593 0 0 1 159.288889 165.167407v15.54963a37.925926 37.925926 0 0 0 45.89037 40.391111 110.174815 110.174815 0 0 1 22.376297-2.465185 116.242963 116.242963 0 0 1 113.777778 118.328889 118.518519 118.518519 0 0 1-61.62963 105.054814 37.925926 37.925926 0 0 0 35.84 66.74963A194.37037 194.37037 0 0 0 834.37037 655.54963a192.284444 192.284444 0 0 0-182.992592-193.991111zM723.057778 177.872593a37.925926 37.925926 0 0 0 37.925926-37.925926v-37.925926a37.925926 37.925926 0 1 0-75.851852 0v37.925926a37.925926 37.925926 0 0 0 37.925926 37.925926zM986.074074 328.817778h-37.925926a37.925926 37.925926 0 0 0 0 75.851852h37.925926a37.925926 37.925926 0 0 0 0-75.851852zM936.201481 153.220741a37.925926 37.925926 0 0 0-53.665185 0l-26.927407 26.737778A37.925926 37.925926 0 1 0 910.222222 233.623704l26.737778-26.737778a37.925926 37.925926 0 0 0-0.758519-53.665185zM723.057778 215.798519a150.565926 150.565926 0 0 0-107.330371 44.373333 37.925926 37.925926 0 0 0 53.665186 53.665185 77.558519 77.558519 0 0 1 107.33037 0 75.851852 75.851852 0 0 1 0 107.33037A37.925926 37.925926 0 1 0 830.198519 474.074074a151.703704 151.703704 0 0 0-107.330371-259.034074z" fill="#ffffff" p-id="4496"></path></svg>