<?xml version="1.0" standalone="no"?><!DOCTYPE svg PUBLIC "-//W3C//DTD SVG 1.1//EN" "http://www.w3.org/Graphics/SVG/1.1/DTD/svg11.dtd"><svg t="1600843345617" class="icon" viewBox="0 0 1024 1024" version="1.1" xmlns="http://www.w3.org/2000/svg" p-id="996" xmlns:xlink="http://www.w3.org/1999/xlink" width="200" height="200"><defs><style type="text/css"></style></defs><path d="M796.444444 310.234074a284.444444 284.444444 0 0 0-567.561481 0 227.555556 227.555556 0 0 0-109.985185 427.425185 37.925926 37.925926 0 1 0 36.219259-66.56 151.703704 151.703704 0 0 1 72.438519-284.444444 154.927407 154.927407 0 0 1 31.288888 3.223704 37.925926 37.925926 0 0 0 45.511112-40.580741c0-6.447407-0.948148-12.894815-0.948149-18.962963a208.592593 208.592593 0 0 1 417.185186 0c0 6.637037 0 13.084444-0.948149 18.962963a37.925926 37.925926 0 0 0 45.511112 40.580741 154.927407 154.927407 0 0 1 31.288888-3.792593 151.703704 151.703704 0 0 1 71.300741 285.582222 37.925926 37.925926 0 0 0 35.650371 66.939259A227.555556 227.555556 0 0 0 796.444444 310.234074zM208.592593 767.051852a37.925926 37.925926 0 0 0-51.768889 13.842963l-37.925926 65.611852a37.925926 37.925926 0 1 0 65.611852 37.925926l37.925926-65.611852a37.925926 37.925926 0 0 0-13.842963-51.768889zM549.925926 767.051852a37.925926 37.925926 0 0 0-51.768889 13.842963l-37.925926 65.611852a37.925926 37.925926 0 0 0 65.611852 37.925926l37.925926-65.611852a37.925926 37.925926 0 0 0-13.842963-51.768889zM891.259259 767.051852a37.925926 37.925926 0 0 0-51.768889 13.842963l-37.925926 65.611852a37.925926 37.925926 0 1 0 65.611852 37.925926l37.925926-65.611852a37.925926 37.925926 0 0 0-13.842963-51.768889zM360.296296 842.903704a37.925926 37.925926 0 0 0-51.768889 13.842963l-37.925926 65.611852a37.925926 37.925926 0 1 0 65.611852 37.925925l37.925926-65.611851a37.925926 37.925926 0 0 0-13.842963-51.768889zM701.62963 842.903704a37.925926 37.925926 0 0 0-51.768889 13.842963l-37.925926 65.611852a37.925926 37.925926 0 0 0 65.611852 37.925925l37.925926-65.611851a37.925926 37.925926 0 0 0-13.842963-51.768889z" fill="#ffffff" p-id="997" data-spm-anchor-id="a313x.7781069.0.i1" class="selected"></path></svg>