<?xml version="1.0" standalone="no"?><!DOCTYPE svg PUBLIC "-//W3C//DTD SVG 1.1//EN" "http://www.w3.org/Graphics/SVG/1.1/DTD/svg11.dtd"><svg t="1600843485729" class="icon" viewBox="0 0 1024 1024" version="1.1" xmlns="http://www.w3.org/2000/svg" p-id="2175" xmlns:xlink="http://www.w3.org/1999/xlink" width="200" height="200"><defs><style type="text/css"></style></defs><path d="M796.444444 303.407407a284.444444 284.444444 0 0 0-568.888888 0 227.555556 227.555556 0 0 0 0 455.111112h568.888888a227.555556 227.555556 0 0 0 0-455.111112z m0 379.25926H227.555556a151.703704 151.703704 0 1 1 31.288888-300.183704 37.925926 37.925926 0 0 0 45.511112-41.14963c0-6.447407-0.948148-12.894815-0.948149-18.962963a208.592593 208.592593 0 0 1 417.185186 0c0 6.637037 0 13.084444-0.948149 18.962963a37.925926 37.925926 0 0 0 45.511112 40.580741A151.703704 151.703704 0 1 1 796.444444 682.666667zM246.518519 872.296296h-30.151112l21.238519-21.238518a18.962963 18.962963 0 0 0-26.737778-26.737778L189.62963 844.61037V815.407407a18.962963 18.962963 0 0 0-37.925926 0v30.151112l-21.238519-22.186667a18.962963 18.962963 0 0 0-26.737778 26.737778L124.965926 872.296296H94.814815a18.962963 18.962963 0 0 0 0 37.925926h30.151111l-21.428148 20.48a18.962963 18.962963 0 0 0 26.737778 26.737778L151.703704 936.201481V967.111111a18.962963 18.962963 0 0 0 37.925926 0v-30.90963l21.238518 21.238519a18.962963 18.962963 0 1 0 26.737778-26.737778L216.367407 910.222222H246.518519a18.962963 18.962963 0 0 0 0-37.925926zM474.074074 872.296296h-30.151111l21.238518-21.238518a18.962963 18.962963 0 1 0-26.737777-26.737778L417.185185 846.317037V815.407407a18.962963 18.962963 0 0 0-37.925926 0v30.151112l-21.238518-21.238519a18.962963 18.962963 0 1 0-26.737778 26.737778L352.521481 872.296296H322.37037a18.962963 18.962963 0 0 0 0 37.925926h30.151111l-21.238518 21.238519a18.962963 18.962963 0 0 0 26.737778 26.737778L379.259259 937.908148V967.111111a18.962963 18.962963 0 0 0 37.925926 0v-29.202963l21.238519 21.238519a18.962963 18.962963 0 0 0 26.737777-26.737778L443.922963 910.222222H474.074074a18.962963 18.962963 0 0 0 0-37.925926zM701.62963 872.296296h-30.151111l21.238518-21.238518a18.962963 18.962963 0 0 0-26.737778-26.737778L644.740741 845.558519V815.407407a18.962963 18.962963 0 0 0-37.925926 0v30.151112l-21.238519-21.238519a18.962963 18.962963 0 1 0-26.737777 26.737778L580.077037 872.296296H549.925926a18.962963 18.962963 0 0 0 0 37.925926h30.151111l-21.238518 21.238519a18.962963 18.962963 0 1 0 26.737777 26.737778L606.814815 936.96V967.111111a18.962963 18.962963 0 0 0 37.925926 0v-30.151111l21.238518 21.238519a18.962963 18.962963 0 0 0 26.737778-26.737778L671.478519 910.222222H701.62963a18.962963 18.962963 0 0 0 0-37.925926zM929.185185 872.296296h-30.151111l21.238519-21.238518a18.962963 18.962963 0 0 0-26.737778-26.737778L872.296296 845.558519V815.407407a18.962963 18.962963 0 0 0-37.925926 0v30.151112l-21.238518-21.238519a18.962963 18.962963 0 0 0-26.737778 26.737778L807.632593 872.296296H777.481481a18.962963 18.962963 0 0 0 0 37.925926h30.151112l-21.238519 21.238519a18.962963 18.962963 0 0 0 26.737778 26.737778L834.37037 936.96V967.111111a18.962963 18.962963 0 0 0 37.925926 0v-30.151111l21.238519 21.238519a18.962963 18.962963 0 0 0 26.737778-26.737778L899.034074 910.222222H929.185185a18.962963 18.962963 0 0 0 0-37.925926z" fill="#ffffff" p-id="2176"></path></svg>