<svg xmlns="http://www.w3.org/2000/svg" xmlns:xlink="http://www.w3.org/1999/xlink" width="200" height="200" class="icon" p-id="1953" t="1610698575370" version="1.1" viewBox="0 0 1024 1024"><defs><style type="text/css"/></defs><path fill="#FFC303" d="M512 768c-141.376 0-256-114.624-256-256s114.624-256 256-256 256 114.624 256 256-114.624 256-256 256z m0-682.666667a32 32 0 0 1 32 32v85.333334a32 32 0 0 1-64 0v-85.333334A32 32 0 0 1 512 85.333333z m301.696 124.970667a32 32 0 0 1 0 45.248l-60.330667 60.352a32 32 0 1 1-45.269333-45.269333l60.352-60.330667a32 32 0 0 1 45.248 0zM938.666667 512a32 32 0 0 1-32 32h-85.333334a32 32 0 0 1 0-64h85.333334A32 32 0 0 1 938.666667 512z m-124.970667 301.696a32 32 0 0 1-45.248 0l-60.352-60.330667a32 32 0 1 1 45.269333-45.269333l60.330667 60.352a32 32 0 0 1 0 45.248zM512 938.666667a32 32 0 0 1-32-32v-85.333334a32 32 0 0 1 64 0v85.333334A32 32 0 0 1 512 938.666667zM210.304 813.696a32 32 0 0 1 0-45.248l60.330667-60.352a32 32 0 1 1 45.269333 45.269333l-60.352 60.330667a32 32 0 0 1-45.248 0zM85.333333 512a32 32 0 0 1 32-32h85.333334a32 32 0 0 1 0 64h-85.333334A32 32 0 0 1 85.333333 512zM210.304 210.304a32 32 0 0 1 45.248 0l60.352 60.330667a32 32 0 1 1-45.269333 45.269333l-60.330667-60.352a32 32 0 0 1 0-45.248z" p-id="1954"/></svg>