<?xml version="1.0" standalone="no"?><!DOCTYPE svg PUBLIC "-//W3C//DTD SVG 1.1//EN" "http://www.w3.org/Graphics/SVG/1.1/DTD/svg11.dtd"><svg t="1600843406344" class="icon" viewBox="0 0 1039 1024" version="1.1" xmlns="http://www.w3.org/2000/svg" p-id="1596" xmlns:xlink="http://www.w3.org/1999/xlink" width="202.9296875" height="200"><defs><style type="text/css"></style></defs><path d="M197.528273 710.731852h455.111111a189.62963 189.62963 0 0 0 162.702222-94.814815H842.269013A194.180741 194.180741 0 0 0 848.90605 227.555556 237.795556 237.795556 0 0 0 614.713458 9.102222a232.106667 232.106667 0 0 0-183.371852 90.074074 37.925926 37.925926 0 0 0-3.034074 4.740741H425.083828A237.795556 237.795556 0 0 0 190.891236 322.37037 194.180741 194.180741 0 0 0 197.528273 710.731852z m417.185185-625.777778a162.512593 162.512593 0 0 1 159.288889 165.167407v15.54963a37.925926 37.925926 0 0 0 45.70074 40.580741A112.260741 112.260741 0 0 1 842.269013 303.407407a118.328889 118.328889 0 0 1 0 236.468149h-1.517037a198.731852 198.731852 0 0 0 1.517037-23.324445A192.284444 192.284444 0 0 0 659.276421 322.37037 240.82963 240.82963 0 0 0 514.209754 121.931852 155.117037 155.117037 0 0 1 614.713458 84.954074zM197.528273 398.222222a112.260741 112.260741 0 0 1 23.324444 2.465185A37.925926 37.925926 0 0 0 266.553458 360.296296v-15.549629A162.512593 162.512593 0 0 1 425.083828 179.768889a162.512593 162.512593 0 0 1 159.288889 165.167407v15.54963a37.925926 37.925926 0 0 0 45.700741 40.391111A112.260741 112.260741 0 0 1 652.639384 398.222222a118.328889 118.328889 0 0 1 0 236.468148H197.528273A118.328889 118.328889 0 0 1 197.528273 398.222222zM406.120865 901.12h-30.151111l21.238519-21.238519a18.962963 18.962963 0 1 0-26.737778-26.548148L349.231976 874.382222v-30.151111a18.962963 18.962963 0 0 0-37.925926 0v30.151111L290.067532 853.333333a18.962963 18.962963 0 1 0-26.737778 26.737778l21.238519 21.238519H254.417161a18.962963 18.962963 0 0 0 0 37.925926h30.151112l-21.238519 21.238518a18.962963 18.962963 0 0 0 26.737778 26.737778L311.30605 965.973333v30.151111a18.962963 18.962963 0 0 0 37.925926 0v-30.151111l21.238519 21.238519a18.962963 18.962963 0 0 0 26.737778-26.737778l-21.238519-21.238518H406.120865a18.962963 18.962963 0 0 0 0-37.925926zM785.380124 901.12h-30.151111l21.238519-21.238519a18.962963 18.962963 0 0 0-26.737778-26.548148L728.491236 874.382222v-30.151111a18.962963 18.962963 0 0 0-37.925926 0v30.151111L669.326791 853.333333a18.962963 18.962963 0 0 0-26.737778 26.737778l21.238519 21.238519H633.676421a18.962963 18.962963 0 0 0 0 37.925926h30.151111l-21.238519 21.238518a18.962963 18.962963 0 0 0 26.737778 26.737778L690.56531 965.973333v30.151111a18.962963 18.962963 0 0 0 37.925926 0v-30.151111l21.238518 21.238519a18.962963 18.962963 0 0 0 26.737778-26.737778l-21.238519-21.238518H785.380124a18.962963 18.962963 0 0 0 0-37.925926zM216.491236 805.546667H186.340124l21.238519-21.238519a18.962963 18.962963 0 1 0-26.737778-26.737778L159.602347 778.619259v-29.961481a18.962963 18.962963 0 0 0-37.925926 0v30.151111l-21.238519-21.428148a18.962963 18.962963 0 1 0-26.737778 26.737778l21.238519 21.238518H64.787532a18.962963 18.962963 0 0 0 0 37.925926h30.151111L73.510495 864.711111A18.962963 18.962963 0 0 0 100.437902 891.259259L121.676421 870.21037v30.151111a18.962963 18.962963 0 0 0 37.925926 0v-30.151111L180.840865 891.259259a18.962963 18.962963 0 0 0 26.737778-26.737778l-21.238519-21.048888H216.491236a18.962963 18.962963 0 0 0 0-37.925926zM595.750495 807.063704h-30.151111l21.238518-21.238519A18.962963 18.962963 0 1 0 560.100124 758.518519L538.861606 780.325926v-30.151111a18.962963 18.962963 0 1 0-37.925926 0v30.151111L479.697161 758.518519a18.962963 18.962963 0 1 0-26.737777 26.737777l21.238518 21.238519H444.046791a18.962963 18.962963 0 1 0 0 37.925926h30.151111l-21.238518 21.238518a18.962963 18.962963 0 1 0 26.737777 26.737778L500.93568 872.296296v30.151111a18.962963 18.962963 0 0 0 37.925926 0V872.296296l21.238518 21.238519a18.962963 18.962963 0 1 0 26.737778-26.737778l-21.238518-21.238518H595.750495a18.962963 18.962963 0 0 0 0-37.925926zM975.009754 806.305185h-30.151111l21.238518-21.238518a18.962963 18.962963 0 0 0-26.737777-26.548148L918.120865 779.567407v-30.151111a18.962963 18.962963 0 0 0-37.925926 0v30.151111L858.956421 758.518519a18.962963 18.962963 0 0 0-26.737778 26.737777l21.238518 21.238519H823.30605a18.962963 18.962963 0 0 0 0 37.925926h30.151111l-21.238518 21.238518a18.962963 18.962963 0 0 0 26.737778 26.737778L880.194939 871.158519v30.151111a18.962963 18.962963 0 0 0 37.925926 0v-30.151111l21.238519 21.238518a18.962963 18.962963 0 0 0 26.737777-26.737778l-21.238518-21.238518H975.009754a18.962963 18.962963 0 0 0 0-37.925926z" fill="#ffffff" p-id="1597"></path></svg>