<?xml version="1.0" standalone="no"?><!DOCTYPE svg PUBLIC "-//W3C//DTD SVG 1.1//EN" "http://www.w3.org/Graphics/SVG/1.1/DTD/svg11.dtd"><svg t="1610698577943" class="icon" viewBox="0 0 1024 1024" version="1.1" xmlns="http://www.w3.org/2000/svg" p-id="2098" xmlns:xlink="http://www.w3.org/1999/xlink" width="200" height="200"><defs><style type="text/css"></style></defs><path d="M693.226667 565.333333h46.122666C814.08 565.333333 874.666667 625.024 874.666667 698.666667S814.08 832 739.349333 832h-473.6v-0.32C165.12 825.92 85.333333 743.68 85.333333 643.093333c0-81.344 52.202667-150.698667 125.44-177.28C243.562667 368.704 336.554667 298.666667 446.144 298.666667c137.024 0 248.085333 109.44 248.085333 244.437333 0 7.488-0.341333 14.912-1.024 22.229333z" fill="#50ACFB" p-id="2099"></path><path d="M617.557333 296.384a141.866667 141.866667 0 0 1 87.573334-30.144c79.36 0 143.701333 65.194667 143.701333 145.642667a146.133333 146.133333 0 0 1-46.549333 107.306666A132.970667 132.970667 0 0 0 759.018667 512h-23.317334a296.448 296.448 0 0 0-118.144-215.616z m111.296-119.893333h0.064c9.834667 1.045333 16.981333 9.856 15.957334 19.712l-3.818667 36.736a17.92 17.92 0 0 1-19.669333 15.957333h-0.085334a17.962667 17.962667 0 0 1-15.978666-19.712l3.818666-36.736a17.92 17.92 0 0 1 19.669334-15.978667h0.042666z m143.573334 70.954666l0.256 0.256a17.962667 17.962667 0 0 1-0.426667 25.237334l-26.090667 25.536a17.856 17.856 0 0 1-25.408-0.448l-0.256-0.256a17.962667 17.962667 0 0 1 0.426667-25.237334l26.112-25.536a17.856 17.856 0 0 1 25.386667 0.426667z m64.981333 147.690667l0.021333 0.469333a17.962667 17.962667 0 0 1-16.64 19.157334l-35.84 2.538666a17.962667 17.962667 0 0 1-19.2-16.64v-0.042666l-0.042666-0.469334a17.962667 17.962667 0 0 1 16.661333-19.157333l35.84-2.56a17.962667 17.962667 0 0 1 19.2 16.661333v0.042667z m-43.797333 155.498667l-0.213334 0.298666a17.898667 17.898667 0 0 1-25.173333 3.989334l-29.248-21.546667a17.962667 17.962667 0 0 1-3.946667-24.917333l0.213334-0.32a17.898667 17.898667 0 0 1 25.173333-3.989334l29.226667 21.546667a17.962667 17.962667 0 0 1 3.968 24.938667z m-320-334.826667l0.234666-0.170667a17.813333 17.813333 0 0 1 24.896 4.842667l20.352 30.570667a17.962667 17.962667 0 0 1-4.821333 24.789333l-0.234667 0.170667a17.813333 17.813333 0 0 1-24.896-4.842667l-20.352-30.570667a17.962667 17.962667 0 0 1 4.821334-24.789333z" fill="#FFC303" p-id="2100"></path></svg>