<?xml version="1.0" standalone="no"?><!DOCTYPE svg PUBLIC "-//W3C//DTD SVG 1.1//EN" "http://www.w3.org/Graphics/SVG/1.1/DTD/svg11.dtd"><svg t="1610698604364" class="icon" viewBox="0 0 1024 1024" version="1.1" xmlns="http://www.w3.org/2000/svg" p-id="3114" xmlns:xlink="http://www.w3.org/1999/xlink" width="200" height="200"><defs><style type="text/css"></style></defs><path d="M463.253333 671.488l0.085334 0.042667a26.837333 26.837333 0 0 1 9.856 36.757333l-126.08 216.96c-7.466667 12.864-23.893333 17.28-36.8 9.877333l-0.106667-0.064a26.837333 26.837333 0 0 1-9.834667-36.757333l126.08-216.96a27.029333 27.029333 0 0 1 36.8-9.856z m180.138667 0l0.106667 0.042667a26.837333 26.837333 0 0 1 9.834666 36.757333l-126.08 216.96c-7.466667 12.864-23.893333 17.28-36.8 9.877333l-0.085333-0.064a26.837333 26.837333 0 0 1-9.856-36.757333l126.08-216.96a27.029333 27.029333 0 0 1 36.8-9.856z m171.157333 0l0.085334 0.042667a26.837333 26.837333 0 0 1 9.834666 36.757333l-99.029333 170.453333c-7.466667 12.864-23.914667 17.28-36.821333 9.877334l-0.085334-0.064a26.837333 26.837333 0 0 1-9.856-36.736l99.050667-170.453334a27.029333 27.029333 0 0 1 36.821333-9.877333z m-540.458666 0l0.106666 0.042667a26.837333 26.837333 0 0 1 9.834667 36.757333l-99.050667 170.453333c-7.466667 12.864-23.893333 17.28-36.8 9.877334l-0.106666-0.064a26.837333 26.837333 0 0 1-9.834667-36.736l99.050667-170.453334a27.029333 27.029333 0 0 1 36.8-9.877333zM282.474667 245.781333C315.733333 152.341333 405.930667 85.333333 512 85.333333c125.184 0 228.266667 93.333333 241.706667 213.333334h1.493333c89.536 0 162.133333 71.637333 162.133333 160 0 88.362667-72.597333 160-162.133333 160H295.829333C191.36 618.666667 106.666667 535.082667 106.666667 432c0-98.666667 77.568-179.456 175.808-186.218667z" fill="#50ACFB" p-id="3115"></path></svg>