<?xml version="1.0" standalone="no"?><!DOCTYPE svg PUBLIC "-//W3C//DTD SVG 1.1//EN" "http://www.w3.org/Graphics/SVG/1.1/DTD/svg11.dtd"><svg t="1610698601863" class="icon" viewBox="0 0 1024 1024" version="1.1" xmlns="http://www.w3.org/2000/svg" p-id="2969" xmlns:xlink="http://www.w3.org/1999/xlink" width="200" height="200"><defs><style type="text/css"></style></defs><path d="M581.802667 841.536l-24.746667-14.272 24.746667-14.293333a22.506667 22.506667 0 1 0-22.528-38.997334l-24.746667 14.293334V759.68a22.549333 22.549333 0 0 0-45.056 0v28.544l-24.746667-14.250667a22.528 22.528 0 0 0-22.528 38.997334l24.746667 14.293333-24.746667 14.293333a22.506667 22.506667 0 1 0 22.549334 38.976l24.725333-14.293333v28.544a22.528 22.528 0 0 0 45.056 0v-28.544l24.746667 14.272a22.506667 22.506667 0 1 0 22.528-38.997333zM282.474667 267.114667C315.733333 173.674667 405.930667 106.666667 512 106.666667c125.184 0 228.266667 93.333333 241.706667 213.333333h1.493333c89.536 0 162.133333 71.637333 162.133333 160 0 88.362667-72.597333 160-162.133333 160H286.805333v-0.213333C186.538667 635.157333 106.666667 553.450667 106.666667 453.333333c0-98.666667 77.568-179.456 175.808-186.218666z" fill="#50ACFB" p-id="2970"></path></svg>