<svg xmlns="http://www.w3.org/2000/svg" xmlns:xlink="http://www.w3.org/1999/xlink" width="200" height="200" class="icon" p-id="3259" t="1610698646353" version="1.1" viewBox="0 0 1024 1024"><defs><style type="text/css"/></defs><path fill="#50ACFB" d="M365.632 837.76c10.752 6.528 14.464 20.992 8.234667 32.298667-6.229333 11.306667-19.989333 15.146667-30.762667 8.618666l-24.746667-14.976v29.994667c0 13.056-10.090667 23.637333-22.528 23.637333-12.437333 0-22.549333-10.581333-22.549333-23.637333v-29.994667l-24.725333 15.018667c-10.773333 6.528-24.554667 2.666667-30.762667-8.64-6.229333-11.306667-2.56-25.770667 8.234667-32.298667l24.746666-15.018666-24.746666-14.976c-10.773333-6.549333-14.464-20.992-8.256-32.32 6.229333-11.306667 20.010667-15.146667 30.784-8.64l24.746666 14.976v-29.973334c0-13.056 10.090667-23.658667 22.528-23.658666 12.437333 0 22.528 10.602667 22.528 23.658666v29.973334l24.746667-14.997334c10.773333-6.506667 24.533333-2.645333 30.762667 8.661334 6.229333 11.306667 2.517333 25.770667-8.234667 32.298666l-24.746667 14.997334 24.746667 14.997333z m216.170667-54.058667c10.773333 6.549333 14.464 20.992 8.234666 32.32-6.229333 11.306667-19.989333 15.146667-30.762666 8.618667l-24.746667-14.976v29.973333c0 13.077333-10.090667 23.658667-22.528 23.658667-12.437333 0-22.528-10.581333-22.528-23.658667v-29.973333l-24.746667 14.997333c-10.773333 6.549333-24.533333 2.666667-30.762666-8.618666-6.229333-11.306667-2.538667-25.792 8.256-32.298667l24.725333-15.018667-24.746667-14.997333c-10.773333-6.528-14.464-20.992-8.256-32.298667 6.229333-11.306667 20.010667-15.168 30.784-8.64l24.746667 14.976v-29.994666c0-13.034667 10.090667-23.637333 22.528-23.637334 12.437333 0 22.549333 10.602667 22.549333 23.637334v29.994666l24.746667-14.997333c10.773333-6.506667 24.533333-2.645333 30.741333 8.661333 6.229333 11.306667 2.538667 25.770667-8.234666 32.298667l-24.746667 14.997333 24.746667 14.976z m216.192 54.058667c10.752 6.528 14.442667 20.992 8.213333 32.298667-6.208 11.306667-19.968 15.146667-30.762667 8.618666l-24.746666-14.976v29.994667c0 13.056-10.090667 23.637333-22.528 23.637333-12.437333 0-22.528-10.581333-22.528-23.637333v-29.994667l-24.746667 15.018667c-10.752 6.528-24.533333 2.666667-30.762667-8.64-6.208-11.306667-2.538667-25.770667 8.256-32.298667l24.746667-15.018666-24.746667-14.976c-10.794667-6.549333-14.464-20.992-8.256-32.32 6.229333-11.306667 19.989333-15.146667 30.784-8.64l24.746667 14.976v-29.973334c0-13.056 10.090667-23.658667 22.528-23.658666 12.437333 0 22.528 10.602667 22.528 23.658666v29.973334l24.746667-14.997334c10.773333-6.506667 24.533333-2.645333 30.741333 8.661334 6.229333 11.306667 2.56 25.770667-8.213333 32.298666l-24.746667 14.997334 24.746667 14.997333zM282.474667 267.114667C315.733333 173.674667 405.930667 106.666667 512 106.666667c125.184 0 228.266667 93.333333 241.706667 213.333333h1.493333c89.536 0 162.133333 71.637333 162.133333 160 0 88.362667-72.597333 160-162.133333 160H286.805333v-0.213333C186.538667 635.157333 106.666667 553.450667 106.666667 453.333333c0-98.666667 77.568-179.456 175.808-186.218666z" p-id="3260"/></svg>