<?xml version="1.0" standalone="no"?><!DOCTYPE svg PUBLIC "-//W3C//DTD SVG 1.1//EN" "http://www.w3.org/Graphics/SVG/1.1/DTD/svg11.dtd"><svg t="1610698591512" class="icon" viewBox="0 0 1024 1024" version="1.1" xmlns="http://www.w3.org/2000/svg" p-id="2534" xmlns:xlink="http://www.w3.org/1999/xlink" width="200" height="200"><defs><style type="text/css"></style></defs><path d="M167.936 597.333333a189.162667 189.162667 0 0 1 114.538667-328.064C315.733333 174.549333 405.930667 106.666667 512 106.666667c125.184 0 228.266667 94.592 241.706667 216.192h1.493333A162.133333 162.133333 0 0 1 872.106667 597.333333H167.914667z m46.826667 265.962667h486.4a27.029333 27.029333 0 0 1 0 54.037333h-486.4a27.029333 27.029333 0 1 1 0-54.037333z m108.074666-108.096h486.4a27.029333 27.029333 0 0 1 0 54.037333h-486.4a27.029333 27.029333 0 0 1 0-54.037333z m-108.074666-108.096h486.4a27.029333 27.029333 0 0 1 0 54.058667h-486.4a27.029333 27.029333 0 1 1 0-54.058667z" fill="#4F748D" p-id="2535"></path></svg>