<?xml version="1.0" standalone="no"?><!DOCTYPE svg PUBLIC "-//W3C//DTD SVG 1.1//EN" "http://www.w3.org/Graphics/SVG/1.1/DTD/svg11.dtd"><svg t="1610698580333" class="icon" viewBox="0 0 1024 1024" version="1.1" xmlns="http://www.w3.org/2000/svg" p-id="2244" xmlns:xlink="http://www.w3.org/1999/xlink" width="200" height="200"><defs><style type="text/css"></style></defs><path d="M241.792 408.533333c28.16-100.373333 118.954667-173.866667 226.56-173.866666C598.506667 234.666667 704 342.122667 704 474.666667c0 9.024-0.490667 17.92-1.429333 26.666666h53.802666v0.298667c2.88-0.213333 5.781333-0.298667 8.725334-0.298667 72.298667 0 130.901333 59.690667 130.901333 133.333334S837.397333 768 765.098667 768c-2.944 0-5.845333-0.106667-8.746667-0.298667V768H311.296C210.048 768 128 684.416 128 581.333333c0-78.037333 47.018667-144.896 113.792-172.8z" fill="#6A91F1" p-id="2245"></path></svg>