<?xml version="1.0" standalone="no"?><!DOCTYPE svg PUBLIC "-//W3C//DTD SVG 1.1//EN" "http://www.w3.org/Graphics/SVG/1.1/DTD/svg11.dtd"><svg t="1600843776917" class="icon" viewBox="0 0 1024 1024" version="1.1" xmlns="http://www.w3.org/2000/svg" p-id="6091" xmlns:xlink="http://www.w3.org/1999/xlink" width="200" height="200"><defs><style type="text/css"></style></defs><path d="M493.037037 839.111111h-30.151111l21.238518-21.238518a18.962963 18.962963 0 0 0-26.737777-26.737778L436.148148 812.373333v-30.151111a18.962963 18.962963 0 0 0-37.925926 0v30.151111l-21.238518-21.238518a18.962963 18.962963 0 1 0-26.737778 26.737778l21.238518 21.238518H341.333333a18.962963 18.962963 0 1 0 0 37.925926h30.151111l-21.238518 21.238519a18.962963 18.962963 0 1 0 26.737778 26.737777L398.222222 903.774815v30.151111a18.962963 18.962963 0 0 0 37.925926 0v-30.151111l21.238519 21.238518a18.962963 18.962963 0 0 0 26.737777-26.737777l-21.238518-21.238519H493.037037a18.962963 18.962963 0 0 0 0-37.925926z" fill="#ffffff" p-id="6092"></path><path d="M651.377778 468.385185A237.795556 237.795556 0 0 0 417.185185 249.742222 237.795556 237.795556 0 0 0 182.992593 468.385185 195.128889 195.128889 0 0 0 102.21037 834.37037a37.925926 37.925926 0 0 0 35.650371-66.939259A118.518519 118.518519 0 0 1 75.851852 662.376296a116.242963 116.242963 0 0 1 113.777778-118.328889 110.174815 110.174815 0 0 1 23.324444 2.465186 37.925926 37.925926 0 0 0 45.700741-40.580741v-15.54963A162.512593 162.512593 0 0 1 417.185185 325.594074a162.512593 162.512593 0 0 1 159.288889 165.167407v15.54963a37.925926 37.925926 0 0 0 45.89037 40.391111A110.174815 110.174815 0 0 1 644.740741 544.237037a116.242963 116.242963 0 0 1 113.777778 118.328889 118.518519 118.518519 0 0 1-61.62963 105.054815 37.925926 37.925926 0 0 0 36.02963 66.749629A194.37037 194.37037 0 0 0 834.37037 662.376296a192.284444 192.284444 0 0 0-182.992592-193.991111zM723.057778 184.888889a37.925926 37.925926 0 0 0 37.925926-37.925926v-37.925926a37.925926 37.925926 0 0 0-75.851852 0v37.925926a37.925926 37.925926 0 0 0 37.925926 37.925926zM986.074074 335.834074h-37.925926a37.925926 37.925926 0 0 0 0 75.851852h37.925926a37.925926 37.925926 0 0 0 0-75.851852zM936.201481 160.047407a37.925926 37.925926 0 0 0-53.665185 0l-26.927407 26.927408A37.925926 37.925926 0 0 0 910.222222 240.45037l26.737778-26.737777a37.925926 37.925926 0 0 0-0.758519-53.665186zM723.057778 222.814815a150.565926 150.565926 0 0 0-107.330371 44.373333 37.925926 37.925926 0 0 0 53.665186 53.665185 77.558519 77.558519 0 0 1 107.33037 0 75.851852 75.851852 0 0 1 0 107.330371 37.925926 37.925926 0 1 0 53.665185 53.665185 151.703704 151.703704 0 0 0-107.33037-259.034074z" fill="#ffffff" p-id="6093"></path></svg>