<?xml version="1.0" standalone="no"?><!DOCTYPE svg PUBLIC "-//W3C//DTD SVG 1.1//EN" "http://www.w3.org/Graphics/SVG/1.1/DTD/svg11.dtd"><svg t="1600843686197" class="icon" viewBox="0 0 1024 1024" version="1.1" xmlns="http://www.w3.org/2000/svg" p-id="4688" xmlns:xlink="http://www.w3.org/1999/xlink" width="200" height="200"><defs><style type="text/css"></style></defs><path d="M796.444444 303.407407a284.444444 284.444444 0 0 0-568.888888 0 227.555556 227.555556 0 0 0 0 455.111112h568.888888a227.555556 227.555556 0 0 0 0-455.111112z m0 379.25926H227.555556a151.703704 151.703704 0 1 1 31.288888-300.183704 37.925926 37.925926 0 0 0 45.511112-41.14963c0-6.447407-0.948148-12.894815-0.948149-18.962963a208.592593 208.592593 0 0 1 417.185186 0c0 6.637037 0 13.084444-0.948149 18.962963a37.925926 37.925926 0 0 0 45.511112 40.580741A151.703704 151.703704 0 1 1 796.444444 682.666667zM360.296296 872.296296h-30.151111l21.238519-21.238518a18.962963 18.962963 0 1 0-26.737778-26.737778L303.407407 844.61037V815.407407a18.962963 18.962963 0 0 0-37.925926 0v30.151112l-21.238518-21.238519a18.962963 18.962963 0 0 0-26.737778 26.737778L238.743704 872.296296H208.592593a18.962963 18.962963 0 0 0 0 37.925926h30.151111l-21.238519 21.238519a18.962963 18.962963 0 0 0 26.737778 26.737778L265.481481 936.201481V967.111111a18.962963 18.962963 0 1 0 37.925926 0v-30.90963l21.238519 21.238519a18.962963 18.962963 0 1 0 26.737778-26.737778L330.145185 910.222222H360.296296a18.962963 18.962963 0 1 0 0-37.925926zM587.851852 872.296296h-30.151111l21.238518-21.238518a18.962963 18.962963 0 1 0-26.737778-26.737778L530.962963 846.317037V815.407407a18.962963 18.962963 0 0 0-37.925926 0v30.151112l-21.238518-21.238519a18.962963 18.962963 0 1 0-26.737778 26.737778L466.299259 872.296296H436.148148a18.962963 18.962963 0 0 0 0 37.925926h30.151111l-21.238518 21.238519a18.962963 18.962963 0 0 0 26.737778 26.737778L493.037037 937.908148V967.111111a18.962963 18.962963 0 0 0 37.925926 0v-29.202963l21.238518 21.238519a18.962963 18.962963 0 0 0 26.737778-26.737778L557.700741 910.222222H587.851852a18.962963 18.962963 0 0 0 0-37.925926zM815.407407 872.296296h-30.151111l21.238519-21.238518a18.962963 18.962963 0 0 0-26.737778-26.737778L758.518519 845.558519V815.407407a18.962963 18.962963 0 0 0-37.925926 0v30.151112l-21.238519-21.238519a18.962963 18.962963 0 0 0-26.737778 26.737778L693.854815 872.296296H663.703704a18.962963 18.962963 0 0 0 0 37.925926h30.151111l-21.238519 21.238519a18.962963 18.962963 0 0 0 26.737778 26.737778L720.592593 936.96V967.111111a18.962963 18.962963 0 0 0 37.925926 0v-30.151111l21.238518 21.238519a18.962963 18.962963 0 0 0 26.737778-26.737778L785.256296 910.222222H815.407407a18.962963 18.962963 0 0 0 0-37.925926z" fill="#ffffff" p-id="4689"></path></svg>