<svg xmlns="http://www.w3.org/2000/svg" xmlns:xlink="http://www.w3.org/1999/xlink" width="200" height="200" class="icon" p-id="1803" t="1610698572661" version="1.1" viewBox="0 0 1024 1024"><defs><style type="text/css"/></defs><path fill="#6A91F1" d="M693.226667 565.333333h46.122666C814.08 565.333333 874.666667 625.024 874.666667 698.666667S814.08 832 739.349333 832h-473.6v-0.32C165.12 825.92 85.333333 743.68 85.333333 643.093333c0-81.344 52.202667-150.698667 125.44-177.28C243.562667 368.704 336.554667 298.666667 446.144 298.666667c137.024 0 248.085333 109.44 248.085333 244.437333 0 7.488-0.341333 14.912-1.024 22.229333z" p-id="1804"/><path fill="#FFC303" d="M642.688 333.738667c21.930667-59.413333 79.829333-101.845333 147.797333-101.845334 3.861333 0 7.68 0.128 11.477334 0.405334a130.88 130.88 0 0 0-33.92 87.957333c0 73.216 60.309333 132.586667 134.72 132.586667 10.837333 0 21.397333-1.28 31.488-3.626667a156.8 156.8 0 0 1-97.344 85.141333 136.106667 136.106667 0 0 0-55.424-11.690666h-45.781334c-5.76-74.538667-40.426667-141.12-93.013333-188.928z" p-id="1805"/></svg>