<?xml version="1.0" standalone="no"?><!DOCTYPE svg PUBLIC "-//W3C//DTD SVG 1.1//EN" "http://www.w3.org/Graphics/SVG/1.1/DTD/svg11.dtd"><svg class="icon" width="200px" height="200.00px" viewBox="0 0 1024 1024" version="1.1" xmlns="http://www.w3.org/2000/svg"><path d="M582.229333 618.666667l90.026667-191.104H431.872L360.149333 618.666667h-64.32C191.36 618.666667 106.666667 535.082667 106.666667 432c0-98.666667 77.568-179.456 175.808-186.218667C315.733333 152.341333 405.930667 85.333333 512 85.333333c125.184 0 228.266667 93.333333 241.706667 213.333334h1.493333c89.536 0 162.133333 71.637333 162.133333 160 0 88.362667-72.597333 160-162.133333 160h-172.970667z" fill="#6A91F1" /><path d="M461.226667 466.304h154.090666l-85.802666 180.608h94.229333l-206.058667 257.28 70.890667-218.944h-110.229333z" fill="#FFC303" /><path d="M772.714667 688.298667a26.261333 26.261333 0 0 1 9.621333 35.904l-96.384 166.826666a26.304 26.304 0 0 1-45.546667-26.24l96.384-166.869333a26.304 26.304 0 0 1 35.925334-9.6z m-473.258667 0a26.261333 26.261333 0 0 1 9.621333 35.904l-96.384 166.826666a26.304 26.304 0 0 1-45.546666-26.24l96.405333-166.869333a26.304 26.304 0 0 1 35.904-9.6z" fill="#50ACFB" /></svg>