<?xml version="1.0" standalone="no"?><!DOCTYPE svg PUBLIC "-//W3C//DTD SVG 1.1//EN" "http://www.w3.org/Graphics/SVG/1.1/DTD/svg11.dtd"><svg t="1600843445653" class="icon" viewBox="0 0 1024 1024" version="1.1" xmlns="http://www.w3.org/2000/svg" p-id="1789" xmlns:xlink="http://www.w3.org/1999/xlink" width="200" height="200"><defs><style type="text/css"></style></defs><path d="M132.80275 760.035556a37.925926 37.925926 0 0 0-51.768889 13.842963l-37.925926 65.611851a37.925926 37.925926 0 1 0 65.611852 37.925926l37.925926-65.611852A37.925926 37.925926 0 0 0 132.80275 760.035556zM474.136083 760.035556a37.925926 37.925926 0 0 0-51.768889 13.842963l-37.925926 65.611851a37.925926 37.925926 0 1 0 65.611852 37.925926l37.925926-65.611852a37.925926 37.925926 0 0 0-13.842963-51.768888zM815.469416 760.035556a37.925926 37.925926 0 0 0-51.768889 13.842963l-37.925926 65.611851a37.925926 37.925926 0 1 0 65.611852 37.925926l37.925926-65.611852a37.925926 37.925926 0 0 0-13.842963-51.768888zM284.506453 835.887407a37.925926 37.925926 0 0 0-51.768889 13.842963l-37.925925 65.611852a37.925926 37.925926 0 1 0 65.611851 37.925926l37.925926-65.611852a37.925926 37.925926 0 0 0-13.842963-51.768889zM625.839787 835.887407a37.925926 37.925926 0 0 0-51.768889 13.842963l-37.925926 65.611852a37.925926 37.925926 0 1 0 65.611852 37.925926l37.925926-65.611852a37.925926 37.925926 0 0 0-13.842963-51.768889zM967.17312 835.887407a37.925926 37.925926 0 0 0-51.768889 13.842963l-37.925926 65.611852a37.925926 37.925926 0 1 0 65.611852 37.925926l37.925926-65.611852a37.925926 37.925926 0 0 0-13.842963-51.768889zM1024.062009 464.402963a192.284444 192.284444 0 0 0-182.992593-193.991111A237.795556 237.795556 0 0 0 606.876824 51.768889a232.106667 232.106667 0 0 0-183.371852 90.074074 37.925926 37.925926 0 0 0-3.034074 4.740741H417.247194A237.795556 237.795556 0 0 0 183.054601 365.226667a195.128889 195.128889 0 0 0-80.782222 366.364444A37.925926 37.925926 0 1 0 137.92275 663.703704 118.518519 118.518519 0 0 1 75.913861 559.217778a116.242963 116.242963 0 0 1 113.777778-118.328889 112.260741 112.260741 0 0 1 23.324444 2.465185 37.925926 37.925926 0 0 0 45.700741-40.580741v-15.549629A162.512593 162.512593 0 0 1 417.247194 222.435556a162.512593 162.512593 0 0 1 159.288889 165.167407v15.54963a37.925926 37.925926 0 0 0 45.700741 40.391111 112.260741 112.260741 0 0 1 22.565926-2.465185 116.242963 116.242963 0 0 1 113.777777 118.328888 118.518519 118.518519 0 0 1-61.629629 104.296297 37.925926 37.925926 0 0 0 35.84 66.749629 191.525926 191.525926 0 0 0 74.903703-72.628148H834.432379a192.094815 192.094815 0 0 0 189.62963-193.422222z m-189.62963 118.328889h-1.517037a199.86963 199.86963 0 0 0 1.517037-23.514074 192.284444 192.284444 0 0 0-182.992592-193.991111A240.82963 240.82963 0 0 0 506.37312 164.598519a155.117037 155.117037 0 0 1 100.503704-37.925926 162.512593 162.512593 0 0 1 159.288889 165.167407v15.54963a37.925926 37.925926 0 0 0 45.70074 40.58074 112.260741 112.260741 0 0 1 22.565926-1.706666 118.328889 118.328889 0 0 1 0 236.468148z" fill="#ffffff" p-id="1790"></path></svg>