<svg xmlns="http://www.w3.org/2000/svg" xmlns:xlink="http://www.w3.org/1999/xlink" width="200" height="200" class="icon" p-id="3694" t="1610714182928" version="1.1" viewBox="0 0 1024 1024"><defs><style type="text/css"/></defs><path fill="#50ACFB" d="M343.317333 829.269333l24.085334 14.570667c10.453333 6.357333 14.08 20.394667 8 31.381333-6.058667 10.986667-19.434667 14.741333-29.930667 8.384l-24.064-14.549333v29.12c0 12.714667-9.813333 22.976-21.930667 22.976-12.096 0-21.930667-10.261333-21.930666-22.976v-29.12l-24.064 14.570667a21.376 21.376 0 0 1-29.930667-8.362667c-6.058667-11.008-2.474667-25.066667 8.021333-31.402667l24.064-14.592-24.064-14.549333c-10.496-6.357333-14.08-20.394667-8.042666-31.402667 6.058667-10.986667 19.456-14.72 29.952-8.405333l24.064 14.549333v-29.12c0-12.672 9.813333-22.976 21.930666-22.976 12.096 0 21.930667 10.304 21.930667 22.976v29.12l24.064-14.549333a21.376 21.376 0 0 1 29.930667 8.405333c6.058667 11.008 2.474667 25.045333-8 31.381334l-24.085334 14.570666z m210.346667-122.517333l24.064 14.549333c10.474667 6.357333 14.08 20.394667 8 31.402667-6.037333 10.965333-19.413333 14.72-29.930667 8.384l-24.064-14.549333v29.12c0 12.693333-9.813333 22.976-21.930666 22.976-12.096 0-21.909333-10.282667-21.909334-22.976v-29.12l-24.064 14.570666a21.376 21.376 0 0 1-29.952-8.384c-6.058667-11.008-2.453333-25.045333 8.021334-31.381333l24.064-14.592-24.064-14.570667c-10.474667-6.357333-14.08-20.394667-8.042667-31.381333 6.08-11.008 19.477333-14.741333 29.973333-8.405333l24.064 14.549333v-29.12c0-12.693333 9.813333-22.976 21.930667-22.976 12.096 0 21.909333 10.282667 21.909333 22.976v29.12l24.064-14.570667a21.376 21.376 0 0 1 29.952 8.426667c6.058667 10.986667 2.453333 25.024-8.021333 31.36l-24.064 14.592z m210.346667 122.517333l24.064 14.570667c10.453333 6.357333 14.08 20.394667 8 31.381333-6.058667 10.986667-19.434667 14.741333-29.930667 8.384l-24.064-14.549333v29.12c0 12.714667-9.813333 22.976-21.930667 22.976-12.096 0-21.930667-10.261333-21.930666-22.976v-29.12l-24.064 14.570667a21.376 21.376 0 0 1-29.930667-8.362667c-6.058667-11.008-2.474667-25.066667 8.021333-31.402667l24.064-14.592-24.064-14.549333c-10.496-6.357333-14.08-20.394667-8.042666-31.402667 6.058667-10.986667 19.456-14.72 29.952-8.405333l24.064 14.549333v-29.12c0-12.672 9.813333-22.976 21.930666-22.976 12.096 0 21.930667 10.304 21.930667 22.976v29.12l24.064-14.549333a21.376 21.376 0 0 1 29.930667 8.405333c6.058667 11.008 2.453333 25.045333-8 31.381334l-24.085334 14.570666zM299.456 571.093333c12.096 0 21.909333 9.813333 21.909333 21.909334v78.72a21.909333 21.909333 0 0 1-43.818666 0v-78.72c0-12.096 9.813333-21.909333 21.909333-21.909334z m210.346667 280.064c12.096 0 21.888 9.813333 21.888 21.909334v43.712a21.909333 21.909333 0 1 1-43.818667 0v-43.712c0-12.096 9.813333-21.909333 21.909333-21.909334z m210.325333-297.557333c12.096 0 21.909333 9.813333 21.909333 21.909333v96.213334a21.909333 21.909333 0 1 1-43.818666 0v-96.213334c0-12.096 9.813333-21.909333 21.909333-21.909333z" p-id="3695"/><path fill="#50ACFB" d="M282.474667 245.781333C315.733333 152.341333 405.930667 85.333333 512 85.333333c125.184 0 228.266667 93.333333 241.706667 213.333334h1.493333c89.536 0 162.133333 71.637333 162.133333 160 0 88.362667-72.597333 160-162.133333 160H295.829333C191.36 618.666667 106.666667 535.082667 106.666667 432c0-98.666667 77.568-179.456 175.808-186.218667z" p-id="3696"/></svg>