<?xml version="1.0" standalone="no"?><!DOCTYPE svg PUBLIC "-//W3C//DTD SVG 1.1//EN" "http://www.w3.org/Graphics/SVG/1.1/DTD/svg11.dtd"><svg t="1610698598195" class="icon" viewBox="0 0 1024 1024" version="1.1" xmlns="http://www.w3.org/2000/svg" p-id="2824" xmlns:xlink="http://www.w3.org/1999/xlink" width="200" height="200"><defs><style type="text/css"></style></defs><path d="M282.474667 267.114667C315.733333 173.674667 405.930667 106.666667 512 106.666667c125.184 0 228.266667 93.333333 241.706667 213.333333h1.493333c89.536 0 162.133333 71.637333 162.133333 160 0 88.362667-72.597333 160-162.133333 160H295.829333C191.36 640 106.666667 556.416 106.666667 453.333333c0-98.666667 77.568-179.456 175.808-186.218666zM249.344 824.32l91.52-105.152-0.128 140.501333a54.037333 54.037333 0 1 1-91.392-35.328z m433.557333-1.109333l90.304-104.042667-0.106666 140.48a54.037333 54.037333 0 1 1-90.197334-36.437333z" fill="#50ACFB" p-id="2825"></path></svg>