<?xml version="1.0" standalone="no"?><!DOCTYPE svg PUBLIC "-//W3C//DTD SVG 1.1//EN" "http://www.w3.org/Graphics/SVG/1.1/DTD/svg11.dtd"><svg t="1600843514018" class="icon" viewBox="0 0 1024 1024" version="1.1" xmlns="http://www.w3.org/2000/svg" p-id="2754" xmlns:xlink="http://www.w3.org/1999/xlink" width="200" height="200"><defs><style type="text/css"></style></defs><path d="M796.444444 371.484444a284.444444 284.444444 0 0 0-567.561481 0 227.555556 227.555556 0 0 0-109.985185 427.425186 37.925926 37.925926 0 1 0 36.219259-66.56 151.703704 151.703704 0 0 1 103.727407-281.78963 37.925926 37.925926 0 0 0 45.511112-40.580741c0-6.447407-0.948148-12.894815-0.948149-18.962963a208.592593 208.592593 0 0 1 417.185186 0c0 6.637037 0 13.084444-0.948149 18.962963a37.925926 37.925926 0 0 0 45.511112 40.580741 151.703704 151.703704 0 0 1 102.589629 282.358519 37.925926 37.925926 0 1 0 35.650371 66.939259A227.555556 227.555556 0 0 0 796.444444 371.484444z" fill="#ffffff" p-id="2755"></path><path d="M341.333333 776.533333a37.925926 37.925926 0 0 0-51.768889 13.842963l-37.925925 65.611852a37.925926 37.925926 0 0 0 65.611851 37.925926l37.925926-65.611852a37.925926 37.925926 0 0 0-13.842963-51.768889zM758.518519 776.533333a37.925926 37.925926 0 0 0-51.768889 13.842963l-37.925926 65.611852a37.925926 37.925926 0 0 0 65.611852 37.925926l37.925925-65.611852a37.925926 37.925926 0 0 0-13.842962-51.768889z" fill="#ffffff" p-id="2756"></path><path d="M436.148148 766.293333m37.925926 0l75.851852 0q37.925926 0 37.925926 37.925926l0 75.851852q0 37.925926-37.925926 37.925926l-75.851852 0q-37.925926 0-37.925926-37.925926l0-75.851852q0-37.925926 37.925926-37.925926Z" fill="#ffffff" p-id="2757"></path></svg>