<?xml version="1.0" encoding="utf-8"?>
<!-- Generator: Adobe Illustrator 22.0.0, SVG Export Plug-In . SVG Version: 6.00 Build 0)  -->
<svg version="1.1" id="_x31_" xmlns="http://www.w3.org/2000/svg" xmlns:xlink="http://www.w3.org/1999/xlink" x="0px" y="0px"
	 viewBox="0 0 1024 1024" style="enable-background:new 0 0 1024 1024;" xml:space="preserve">
<style type="text/css">
	.st0{fill:#FFFFFF;}
</style>
<path class="st0" d="M512,182.8c21.4,0,38.7-17.3,38.7-38.7V66.5c0-21.4-17.3-38.7-38.7-38.7c-21.4,0-38.7,17.3-38.7,38.7V144
	C473.3,165.4,490.6,182.8,512,182.8C512,182.8,512,182.8,512,182.8z M224.4,279.6c15.2,15.2,40,15.2,55.2,0
	c15.2-15.2,15.2-40,0-55.2l-55.2-54.8c-15.1-15.1-39.7-15.1-54.8,0s-15.1,39.7,0,54.8L224.4,279.6z M182.7,512
	c0-21.4-17.3-38.7-38.7-38.7l0,0H66.5c-21.4,0-38.7,17.4-38.7,38.8c0,21.4,17.3,38.7,38.7,38.7H144
	C165.4,550.8,182.7,533.4,182.7,512C182.7,512,182.7,512,182.7,512z M224.4,744.4l-54.8,55.2c-15.1,15.1-15.1,39.7,0,54.8
	s39.7,15.1,54.8,0l55.2-54.8c15.2-15.2,15.2-40,0-55.2C264.3,729.2,239.6,729.2,224.4,744.4L224.4,744.4z M512,841.3
	c-21.4,0-38.7,17.3-38.7,38.7v77.5c0,21.4,17.4,38.7,38.8,38.7c21.4,0,38.7-17.3,38.7-38.7V880C550.7,858.6,533.4,841.3,512,841.3z
	 M799.6,744.4c-15.2-15.2-40-15.2-55.2,0c-15.2,15.2-15.2,40,0,55.2l54.8,54.8c15.1,15.1,39.7,15.1,54.8,0s15.1-39.7,0-54.8l0,0
	L799.6,744.4z M957.5,473.3H880c-21.4,0-38.7,17.4-38.7,38.8c0,21.4,17.3,38.7,38.7,38.7h77.5c21.4,0,38.7-17.3,38.7-38.7
	S978.9,473.3,957.5,473.3z M799.6,279.6l54.8-54.8c15.1-15.1,15.1-39.7,0-54.8s-39.7-15.1-54.8,0l-55.2,54.4
	c-15.2,15.2-15.2,40,0,55.2C759.7,294.8,784.4,294.8,799.6,279.6z"/>
<path class="st0" d="M512,221.5c-160.5,0-290.5,130.1-290.5,290.5S351.5,802.6,512,802.6S802.5,672.5,802.5,512l0,0
	C802.5,351.6,672.4,221.5,512,221.5C512,221.5,512,221.5,512,221.5z M512,725.1c-117.7,0-213.1-95.4-213.1-213.1S394.3,299,512,299
	S725,394.4,725,512S629.7,725.1,512,725.1L512,725.1z"/>
</svg>
