<svg xmlns="http://www.w3.org/2000/svg" xmlns:xlink="http://www.w3.org/1999/xlink" width="128" height="128" class="icon" p-id="1554" t="1601619623670" version="1.1" viewBox="0 0 1024 1024"><defs><style type="text/css"/></defs><path fill="#000" d="M752.87893333 565.52106667c-13.65333333 0-27.30666667-5.46133333-38.22933333-15.83786667l-443.46026667-439.0912c-21.2992-21.2992-21.29919999-55.15946667-0.54613333-76.45866667s55.15946667-21.29919999 76.45866666-0.54613332l443.46026667 439.09119999a54.23104 54.23104 0 0 1 0.54613332 76.45866668c-9.8304 11.46880001-24.02986667 16.384-38.22933332 16.38399999z" p-id="1555"/><path fill="#000" d="M314.33386666 1008.98133334c-13.65333333 0-27.30666667-5.46133333-38.22933333-15.83786667-21.2992-21.2992-21.29919999-55.15946667-0.54613333-76.45866667l439.0912-443.46026667a54.23104 54.23104 0 0 1 76.45866666-0.54613333 54.23104 54.23104 0 0 1 0.54613334 76.45866665L352.5632 992.59733333c-10.37653333 10.92266667-24.576 16.384-38.22933334 16.38400001z" p-id="1556"/></svg>