<svg xmlns="http://www.w3.org/2000/svg" xmlns:xlink="http://www.w3.org/1999/xlink" id="bg" x="0" y="0" version="1.1" viewBox="0 0 143.5 49.7" xml:space="preserve"><style type="text/css">.st0{opacity:.5;fill:#fff}</style><path d="M18.6,41.6c0.3,0,0.5,0,0.8,0c-2,1.5-4.6,2.5-7.3,2.5c-6.6,0-12-5.4-12-12c0-6.6,5.4-12,12-12	c4.2,0,8,2.2,10.1,5.5c-1.1-0.5-2.3-0.8-3.5-0.8c-4.7,0-8.5,3.8-8.5,8.4C10.2,37.8,14,41.6,18.6,41.6z" class="st0"/><path d="M82.1,18.8c0.2-0.1,0.5-0.1,0.7-0.2c-1.5,1.8-3.6,3.2-6.1,3.8c-6,1.4-12.1-2.4-13.5-8.4	c-1.4-6,2.4-12.1,8.4-13.5c3.9-0.9,7.7,0.3,10.3,2.9c-1.1-0.2-2.2-0.2-3.4,0c-4.3,1-6.9,5.2-5.9,9.5C73.6,17.1,77.8,19.8,82.1,18.8z" class="st0"/><path d="M132.2,49.4c0.2,0.1,0.4,0.3,0.6,0.4c-2.4,0-4.8-0.7-6.9-2.2c-5-3.7-6-10.7-2.3-15.7c3.7-5,10.7-6,15.7-2.3	c3.2,2.4,4.7,6.1,4.5,9.7c-0.5-1-1.3-1.9-2.2-2.6c-3.5-2.6-8.4-1.9-11,1.6C128,41.9,128.7,46.8,132.2,49.4z" class="st0"/></svg>