<svg xmlns="http://www.w3.org/2000/svg" xmlns:xlink="http://www.w3.org/1999/xlink" id="bg" x="0" y="0" version="1.1" viewBox="0 0 143.5 49.7" xml:space="preserve" style="enable-background:new 0 0 143.5 49.7"><style type="text/css">.st0{fill:#fff}</style><polygon points="42.2 -5.2 38.4 5.8 45.4 15 33.8 14.9 27.1 24.3 23.7 13.3 12.7 9.9 22.1 3.2 22 -8.4 31.2 -1.5" class="st0"/><polygon points="52.7 49.1 47.3 48.3 43.6 52.2 42.8 46.9 37.9 44.5 42.7 42.1 43.4 36.7 47.2 40.6 52.5 39.6 50.1 44.4" class="st0"/><polygon points="131.9 54.2 115.5 52.7 105 65.2 101.4 49.2 86.2 43.1 100.3 34.8 101.5 18.4 113.8 29.3 129.7 25.3 123.2 40.3" class="st0"/><polygon points="79.6 30.2 76.7 28.6 73.7 30.1 74.3 26.8 71.9 24.4 75.3 24 76.8 21 78.2 24 81.5 24.6 79.1 26.9" class="st0"/><polygon points="114.9 2.7 108.9 1.4 104.5 5.6 103.9 -.4 98.5 -3.3 104.1 -5.8 105.2 -11.8 109.3 -7.3 115.3 -8 112.2 -2.8" class="st0"/><polygon points="139 13.9 135.3 13 132.4 15.5 132.2 11.7 128.8 9.7 132.4 8.3 133.2 4.5 135.7 7.5 139.5 7.1 137.5 10.4" class="st0"/><polygon points="84 58.5 81.4 56.9 78.5 58.1 79.3 55.1 77.2 52.8 80.3 52.5 81.9 49.8 83.1 52.7 86.1 53.4 83.7 55.4" class="st0"/><polygon points="7.9 2.4 5.2 1.3 2.7 2.9 2.9 0 .7 -1.9 3.5 -2.5 4.6 -5.3 6.1 -2.8 9 -2.6 7.1 -.4" class="st0"/><polygon points="60 22.3 56 19.6 51.5 21.4 52.8 16.7 49.7 13 54.6 12.8 57.2 8.7 58.9 13.3 63.5 14.5 59.7 17.5" class="st0"/><polygon points="20.8 58.3 14.1 55.3 7.8 59.1 8.6 51.8 3 47 10.2 45.5 13 38.8 16.7 45.1 24 45.7 19.1 51.2" class="st0"/><polygon points="16.8 26.5 14.2 25.7 12.1 27.4 12 24.7 9.7 23.2 12.2 22.3 12.9 19.7 14.6 21.8 17.3 21.7 15.8 23.9" class="st0"/><polygon points="3.9 30.3 1 29.8 -1 31.8 -1.4 29 -4 27.6 -1.3 26.4 -.9 23.6 1.1 25.7 4 25.2 2.6 27.8" class="st0"/><polygon points="34.9 34.4 32.5 33.6 30.5 35.1 30.5 32.6 28.4 31.2 30.8 30.4 31.6 28 33 30 35.6 30 34.1 32" class="st0"/><polygon points="142.2 35.1 139.7 33.9 137.3 35.4 137.6 32.6 135.5 30.8 138.2 30.3 139.3 27.7 140.7 30.1 143.4 30.3 141.6 32.4" class="st0"/><polygon points="119.4 16.1 117.8 15.2 116.1 15.9 116.5 14.1 115.3 12.8 117.1 12.6 118 11 118.8 12.7 120.6 13 119.2 14.3" class="st0"/></svg>